<svg xmlns="http://www.w3.org/2000/svg" xmlns:xlink="http://www.w3.org/1999/xlink" width="800" zoomAndPan="magnify" viewBox="0 0 600 449.999984" height="600" preserveAspectRatio="xMidYMid meet" version="1.0"><defs><g/><clipPath id="aa509338c3"><path d="M 398.769531 89 L 600 89 L 600 287.226562 L 398.769531 287.226562 Z M 398.769531 89 " clip-rule="nonzero"/></clipPath></defs><g clip-path="url(#aa509338c3)"><path fill="#ff3b77" d="M 590.835938 287.195312 C 585.152344 280.410156 578.515625 274.6875 571.167969 269.761719 C 566.609375 266.699219 566.484375 265.253906 568.761719 260.15625 C 573.457031 249.664062 576.207031 238.507812 579.425781 227.515625 C 586.246094 204.199219 588.964844 180.308594 588.941406 156.117188 C 588.925781 140.816406 586.347656 125.882812 580.269531 111.710938 C 578.742188 108.148438 576.707031 104.730469 573.695312 102.242188 C 568.199219 97.707031 562.175781 96.367188 555.492188 99.996094 C 551.414062 102.207031 547.832031 105.03125 545.023438 108.585938 C 538.898438 116.339844 533.992188 124.710938 530.289062 134.039062 C 525.328125 146.53125 522.28125 159.410156 519.777344 172.460938 C 517.246094 185.671875 516.601562 199.109375 515.957031 212.542969 C 515.445312 223.214844 515.753906 233.816406 516.664062 244.445312 C 517.054688 249.011719 514.894531 251.292969 510.304688 251.121094 C 506.421875 250.980469 502.578125 250.964844 498.707031 251.214844 C 493.742188 251.527344 491.410156 249.90625 491.3125 245.035156 C 491.128906 235.710938 490.027344 226.441406 489.757812 217.140625 C 489.402344 205.011719 488.628906 192.929688 486.84375 180.9375 C 485.039062 168.847656 483.578125 156.695312 480.695312 144.777344 C 477.5625 131.808594 473.882812 119.035156 466.238281 107.863281 C 462.742188 102.753906 458.527344 98.375 451.753906 97.460938 C 444.367188 96.460938 438.695312 99.910156 433.835938 104.535156 C 425.277344 112.671875 420.792969 123.3125 417.804688 134.40625 C 414.996094 144.808594 413.878906 155.585938 413.367188 166.359375 C 412.996094 174.175781 412.03125 182.128906 413.015625 189.808594 C 414.261719 199.527344 415.585938 209.339844 418.4375 218.808594 C 421.085938 227.59375 422.394531 236.773438 426.460938 245.136719 C 428.558594 249.449219 430.472656 253.839844 432.523438 258.171875 C 434.03125 261.355469 433.894531 264.078125 430.652344 266.144531 C 421.894531 271.742188 414.46875 278.738281 408.441406 287.191406 C 405.226562 287.191406 402.011719 287.191406 398.804688 287.191406 C 404.582031 278.8125 411.320312 271.28125 419.316406 264.957031 C 425.070312 260.40625 425.054688 260.578125 421.714844 254.085938 C 417.976562 246.816406 416.132812 238.863281 413.851562 231.082031 C 411.125 221.777344 408.953125 212.328125 407.300781 202.769531 C 405.597656 192.902344 404.5625 182.957031 405.304688 172.957031 C 406.050781 162.878906 405.761719 152.675781 408.238281 142.785156 C 411.042969 131.5625 413.84375 120.265625 419.890625 110.238281 C 425.578125 100.789062 432.988281 93.132812 444.21875 90.222656 C 454.414062 87.578125 465.671875 93.703125 471.519531 101.964844 C 481.007812 115.367188 485.472656 130.5625 489.039062 146.164062 C 493.203125 164.382812 494.636719 182.960938 496.355469 201.527344 C 497.449219 213.332031 497.640625 225.167969 498.722656 236.960938 C 498.949219 239.433594 498.511719 242.582031 502.410156 243.03125 C 508.1875 243.699219 508.941406 243.039062 508.738281 237.191406 C 508.042969 217.089844 508.539062 197.074219 511.71875 177.132812 C 515.027344 156.386719 519.582031 136.027344 530.03125 117.578125 C 535.960938 107.117188 543.273438 97.546875 554.78125 92.316406 C 561.433594 89.292969 567.898438 90.550781 573.984375 93.847656 C 584.046875 99.300781 587.46875 109.207031 590.46875 119.253906 C 594.269531 131.96875 596.242188 145.082031 596.242188 158.25 C 596.246094 181.878906 593.484375 205.242188 587.09375 228.128906 C 584.121094 238.773438 580.777344 249.28125 577.261719 259.746094 C 576.402344 262.304688 576.695312 264.011719 578.96875 265.554688 C 585.980469 270.304688 591.0625 277.15625 597.449219 282.601562 C 598.859375 283.808594 600.164062 285.207031 600.476562 287.191406 C 597.261719 287.195312 594.046875 287.195312 590.835938 287.195312 Z M 590.835938 287.195312 " fill-opacity="1" fill-rule="nonzero"/></g><g fill="#000000" fill-opacity="1"><g transform="translate(0.060568, 341.222457)"><g><path d="M 29.3125 -54.21875 C 48.28125 -54.21875 57.765625 -45.179688 57.765625 -27.109375 C 57.765625 -9.035156 48.28125 0 29.3125 0 L 5.828125 0 L 5.828125 -54.21875 Z M 23.25 -13 L 29 -13 C 36.300781 -13 39.953125 -16.914062 39.953125 -24.75 L 39.953125 -29.46875 C 39.953125 -37.289062 36.300781 -41.203125 29 -41.203125 L 23.25 -41.203125 Z M 23.25 -13 "/></g></g></g><g fill="#000000" fill-opacity="1"><g transform="translate(61.355286, 341.222457)"><g><path d="M 26.234375 -42.546875 C 33.535156 -42.546875 39.273438 -40.691406 43.453125 -36.984375 C 47.628906 -33.285156 49.71875 -27.890625 49.71875 -20.796875 C 49.71875 -13.710938 47.628906 -8.316406 43.453125 -4.609375 C 39.273438 -0.898438 33.535156 0.953125 26.234375 0.953125 C 18.929688 0.953125 13.207031 -0.882812 9.0625 -4.5625 C 4.914062 -8.25 2.84375 -13.660156 2.84375 -20.796875 C 2.84375 -27.941406 4.914062 -33.351562 9.0625 -37.03125 C 13.207031 -40.707031 18.929688 -42.546875 26.234375 -42.546875 Z M 26.234375 -31.90625 C 21.085938 -31.90625 18.515625 -28.941406 18.515625 -23.015625 L 18.515625 -18.515625 C 18.515625 -12.628906 21.085938 -9.6875 26.234375 -9.6875 C 31.441406 -9.6875 34.046875 -12.628906 34.046875 -18.515625 L 34.046875 -23.015625 C 34.046875 -28.941406 31.441406 -31.90625 26.234375 -31.90625 Z M 26.234375 -31.90625 "/></g></g></g><g fill="#000000" fill-opacity="1"><g transform="translate(113.904852, 341.222457)"><g><path d="M 39.484375 0 L 22.0625 0 L 22.0625 -21.03125 L 0.546875 -54.21875 L 20.5625 -54.21875 L 30.96875 -36.171875 L 31.28125 -36.171875 L 41.6875 -54.21875 L 60.671875 -54.21875 L 39.484375 -21.03125 Z M 39.484375 0 "/></g></g></g><g fill="#000000" fill-opacity="1"><g transform="translate(175.199569, 341.222457)"><g><path d="M 26.234375 -42.546875 C 33.859375 -42.546875 39.675781 -40.757812 43.6875 -37.1875 C 47.707031 -33.613281 49.71875 -28.148438 49.71875 -20.796875 L 49.71875 -18.125 L 18.515625 -18.125 C 18.515625 -15.125 19.179688 -12.863281 20.515625 -11.34375 C 21.859375 -9.820312 23.976562 -9.0625 26.875 -9.0625 C 29.5 -9.0625 31.425781 -9.613281 32.65625 -10.71875 C 33.894531 -11.820312 34.515625 -13.289062 34.515625 -15.125 L 49.71875 -15.125 C 49.71875 -10.082031 47.800781 -6.140625 43.96875 -3.296875 C 40.132812 -0.460938 34.539062 0.953125 27.1875 0.953125 C 19.46875 0.953125 13.476562 -0.84375 9.21875 -4.4375 C 4.96875 -8.039062 2.84375 -13.492188 2.84375 -20.796875 C 2.84375 -27.941406 4.914062 -33.351562 9.0625 -37.03125 C 13.207031 -40.707031 18.929688 -42.546875 26.234375 -42.546875 Z M 26.875 -32.546875 C 21.9375 -32.546875 19.175781 -30.207031 18.59375 -25.53125 L 33.875 -25.53125 C 33.875 -27.6875 33.253906 -29.394531 32.015625 -30.65625 C 30.785156 -31.914062 29.070312 -32.546875 26.875 -32.546875 Z M 26.875 -32.546875 "/></g></g></g><g fill="#000000" fill-opacity="1"><g transform="translate(227.749135, 341.222457)"><g><path d="M 25.296875 -42.546875 C 31.648438 -42.546875 36.820312 -41.484375 40.8125 -39.359375 C 44.8125 -37.234375 46.8125 -33.78125 46.8125 -29 L 46.8125 -12.765625 C 46.8125 -11.867188 47.019531 -11.128906 47.4375 -10.546875 C 47.851562 -9.972656 48.484375 -9.6875 49.328125 -9.6875 L 52.15625 -9.6875 L 52.15625 -0.625 C 52 -0.519531 51.59375 -0.347656 50.9375 -0.109375 C 50.28125 0.117188 49.347656 0.351562 48.140625 0.59375 C 46.929688 0.832031 45.539062 0.953125 43.96875 0.953125 C 40.914062 0.953125 38.40625 0.492188 36.4375 -0.421875 C 34.46875 -1.347656 33.117188 -2.625 32.390625 -4.25 C 30.390625 -2.675781 28.15625 -1.414062 25.6875 -0.46875 C 23.21875 0.476562 20.328125 0.953125 17.015625 0.953125 C 7.242188 0.953125 2.359375 -2.9375 2.359375 -10.71875 C 2.359375 -14.757812 3.445312 -17.84375 5.625 -19.96875 C 7.8125 -22.101562 10.953125 -23.5625 15.046875 -24.34375 C 19.148438 -25.132812 24.507812 -25.53125 31.125 -25.53125 L 31.125 -27.578125 C 31.125 -29.203125 30.554688 -30.4375 29.421875 -31.28125 C 28.296875 -32.125 26.84375 -32.546875 25.0625 -32.546875 C 23.425781 -32.546875 22.015625 -32.253906 20.828125 -31.671875 C 19.648438 -31.097656 19.0625 -30.179688 19.0625 -28.921875 L 19.0625 -28.609375 L 3.625 -28.609375 C 3.570312 -28.867188 3.546875 -29.234375 3.546875 -29.703125 C 3.546875 -33.640625 5.421875 -36.765625 9.171875 -39.078125 C 12.929688 -41.390625 18.304688 -42.546875 25.296875 -42.546875 Z M 31.125 -18.125 C 26.65625 -18.125 23.359375 -17.632812 21.234375 -16.65625 C 19.109375 -15.6875 18.046875 -14.390625 18.046875 -12.765625 C 18.046875 -10.140625 19.832031 -8.828125 23.40625 -8.828125 C 25.445312 -8.828125 27.242188 -9.378906 28.796875 -10.484375 C 30.347656 -11.585938 31.125 -12.953125 31.125 -14.578125 Z M 31.125 -18.125 "/></g></g></g><g fill="#000000" fill-opacity="1"><g transform="translate(280.298701, 341.222457)"><g><path d="M 20.40625 -37.265625 C 22.09375 -38.953125 24.0625 -40.253906 26.3125 -41.171875 C 28.570312 -42.085938 30.9375 -42.546875 33.40625 -42.546875 C 38.238281 -42.546875 41.863281 -41.207031 44.28125 -38.53125 C 46.695312 -35.851562 47.90625 -31.992188 47.90625 -26.953125 L 47.90625 0 L 32.234375 0 L 32.234375 -25.0625 C 32.234375 -26.84375 31.769531 -28.269531 30.84375 -29.34375 C 29.925781 -30.425781 28.628906 -30.96875 26.953125 -30.96875 C 25.003906 -30.96875 23.425781 -30.335938 22.21875 -29.078125 C 21.007812 -27.816406 20.40625 -26.265625 20.40625 -24.421875 L 20.40625 0 L 4.734375 0 L 4.734375 -57.125 L 20.40625 -57.125 Z M 20.40625 -37.265625 "/></g></g></g><g fill="#000000" fill-opacity="1"><g transform="translate(332.848267, 341.222457)"><g><path d="M 41.921875 -54.21875 C 44.648438 -54.21875 47.15625 -53.648438 49.4375 -52.515625 C 51.726562 -51.390625 53.539062 -49.800781 54.875 -47.75 C 56.21875 -45.695312 56.890625 -43.410156 56.890625 -40.890625 C 56.890625 -34.222656 53.867188 -30.019531 47.828125 -28.28125 L 47.828125 -27.96875 C 54.710938 -26.394531 58.15625 -21.878906 58.15625 -14.421875 C 58.15625 -11.585938 57.457031 -9.078125 56.0625 -6.890625 C 54.664062 -4.710938 52.757812 -3.019531 50.34375 -1.8125 C 47.925781 -0.601562 45.273438 0 42.390625 0 L 5.828125 0 L 5.828125 -54.21875 Z M 23.25 -33.09375 L 35.21875 -33.09375 C 36.375 -33.09375 37.332031 -33.5 38.09375 -34.3125 C 38.851562 -35.125 39.234375 -36.132812 39.234375 -37.34375 L 39.234375 -38.140625 C 39.234375 -39.296875 38.835938 -40.28125 38.046875 -41.09375 C 37.265625 -41.90625 36.320312 -42.3125 35.21875 -42.3125 L 23.25 -42.3125 Z M 23.25 -12.609375 L 36.484375 -12.609375 C 37.640625 -12.609375 38.597656 -13.015625 39.359375 -13.828125 C 40.117188 -14.640625 40.5 -15.648438 40.5 -16.859375 L 40.5 -17.65625 C 40.5 -18.863281 40.117188 -19.875 39.359375 -20.6875 C 38.597656 -21.5 37.640625 -21.90625 36.484375 -21.90625 L 23.25 -21.90625 Z M 23.25 -12.609375 "/></g></g></g><g fill="#000000" fill-opacity="1"><g transform="translate(394.142984, 341.222457)"><g><path d="M 34.90625 0 L 33.875 -6.296875 C 32.25 -4.046875 30.109375 -2.273438 27.453125 -0.984375 C 24.804688 0.304688 22.007812 0.953125 19.0625 0.953125 C 14.226562 0.953125 10.601562 -0.382812 8.1875 -3.0625 C 5.769531 -5.75 4.5625 -9.613281 4.5625 -14.65625 L 4.5625 -41.609375 L 20.25 -41.609375 L 20.25 -16.546875 C 20.25 -14.765625 20.707031 -13.332031 21.625 -12.25 C 22.550781 -11.175781 23.851562 -10.640625 25.53125 -10.640625 C 27.476562 -10.640625 29.054688 -11.269531 30.265625 -12.53125 C 31.472656 -13.789062 32.078125 -15.335938 32.078125 -17.171875 L 32.078125 -41.609375 L 47.75 -41.609375 L 47.75 0 Z M 34.90625 0 "/></g></g></g><g fill="#000000" fill-opacity="1"><g transform="translate(446.69255, 341.222457)"><g><path d="M 33.40625 -42.546875 C 38.238281 -42.546875 41.863281 -41.207031 44.28125 -38.53125 C 46.695312 -35.851562 47.90625 -31.992188 47.90625 -26.953125 L 47.90625 0 L 32.234375 0 L 32.234375 -25.0625 C 32.234375 -26.84375 31.769531 -28.269531 30.84375 -29.34375 C 29.925781 -30.425781 28.628906 -30.96875 26.953125 -30.96875 C 25.003906 -30.96875 23.425781 -30.335938 22.21875 -29.078125 C 21.007812 -27.816406 20.40625 -26.265625 20.40625 -24.421875 L 20.40625 0 L 4.734375 0 L 4.734375 -41.609375 L 17.578125 -41.609375 L 18.59375 -35.296875 C 20.21875 -37.503906 22.359375 -39.265625 25.015625 -40.578125 C 27.671875 -41.890625 30.46875 -42.546875 33.40625 -42.546875 Z M 33.40625 -42.546875 "/></g></g></g><g fill="#000000" fill-opacity="1"><g transform="translate(499.242147, 341.222457)"><g><path d="M 33.40625 -42.546875 C 38.238281 -42.546875 41.863281 -41.207031 44.28125 -38.53125 C 46.695312 -35.851562 47.90625 -31.992188 47.90625 -26.953125 L 47.90625 0 L 32.234375 0 L 32.234375 -25.0625 C 32.234375 -26.84375 31.769531 -28.269531 30.84375 -29.34375 C 29.925781 -30.425781 28.628906 -30.96875 26.953125 -30.96875 C 25.003906 -30.96875 23.425781 -30.335938 22.21875 -29.078125 C 21.007812 -27.816406 20.40625 -26.265625 20.40625 -24.421875 L 20.40625 0 L 4.734375 0 L 4.734375 -41.609375 L 17.578125 -41.609375 L 18.59375 -35.296875 C 20.21875 -37.503906 22.359375 -39.265625 25.015625 -40.578125 C 27.671875 -41.890625 30.46875 -42.546875 33.40625 -42.546875 Z M 33.40625 -42.546875 "/></g></g></g><g fill="#000000" fill-opacity="1"><g transform="translate(551.791713, 341.222457)"><g><path d="M 33.328125 -1.265625 C 31.171875 4.566406 28.53125 8.992188 25.40625 12.015625 C 22.28125 15.035156 17.910156 16.546875 12.296875 16.546875 C 8.878906 16.546875 5.859375 16.070312 3.234375 15.125 L 3.234375 5.75 L 9.53125 5.75 C 13.46875 5.75 15.804688 3.832031 16.546875 0 L 0 -41.609375 L 16.859375 -41.609375 L 24.828125 -13.953125 L 25.375 -13.953125 L 32.703125 -41.609375 L 48.140625 -41.609375 Z M 33.328125 -1.265625 "/></g></g></g></svg>