<svg xmlns="http://www.w3.org/2000/svg" xmlns:xlink="http://www.w3.org/1999/xlink" width="800" zoomAndPan="magnify" viewBox="0 0 600 276.749989" height="369" preserveAspectRatio="xMidYMid meet" version="1.0"><defs><g/><clipPath id="ac4ab0bf08"><path d="M 398.679688 2 L 599.726562 2 L 599.726562 200.085938 L 398.679688 200.085938 Z M 398.679688 2 " clip-rule="nonzero"/></clipPath><clipPath id="932952b970"><path d="M 551 213 L 599.726562 213 L 599.726562 272 L 551 272 Z M 551 213 " clip-rule="nonzero"/></clipPath></defs><g clip-path="url(#ac4ab0bf08)"><path fill="#ff3b77" d="M 590.574219 200.058594 C 584.898438 193.277344 578.261719 187.5625 570.925781 182.636719 C 566.367188 179.578125 566.242188 178.132812 568.519531 173.042969 C 573.210938 162.558594 575.957031 151.414062 579.175781 140.429688 C 585.988281 117.132812 588.707031 93.269531 588.679688 69.097656 C 588.664062 53.808594 586.089844 38.890625 580.015625 24.730469 C 578.488281 21.171875 576.457031 17.757812 573.449219 15.273438 C 567.957031 10.742188 561.9375 9.402344 555.261719 13.023438 C 551.1875 15.234375 547.609375 18.058594 544.804688 21.609375 C 538.679688 29.355469 533.78125 37.71875 530.082031 47.039062 C 525.125 59.519531 522.082031 72.386719 519.578125 85.425781 C 517.046875 98.625 516.40625 112.050781 515.761719 125.46875 C 515.25 136.132812 515.558594 146.726562 516.46875 157.347656 C 516.859375 161.910156 514.699219 164.183594 510.113281 164.015625 C 506.238281 163.875 502.394531 163.859375 498.527344 164.109375 C 493.566406 164.421875 491.238281 162.800781 491.140625 157.9375 C 490.953125 148.617188 489.855469 139.359375 489.585938 130.066406 C 489.230469 117.949219 488.460938 105.878906 486.675781 93.894531 C 484.875 81.8125 483.410156 69.675781 480.535156 57.765625 C 477.402344 44.808594 473.726562 32.046875 466.089844 20.886719 C 462.597656 15.78125 458.386719 11.40625 451.617188 10.492188 C 444.234375 9.492188 438.570312 12.941406 433.714844 17.558594 C 425.167969 25.691406 420.683594 36.320312 417.699219 47.40625 C 414.894531 57.800781 413.777344 68.566406 413.265625 79.328125 C 412.894531 87.140625 411.933594 95.085938 412.914062 102.757812 C 414.160156 112.464844 415.480469 122.269531 418.332031 131.730469 C 420.976562 140.507812 422.285156 149.679688 426.347656 158.035156 C 428.441406 162.34375 430.355469 166.734375 432.402344 171.058594 C 433.910156 174.242188 433.773438 176.957031 430.535156 179.023438 C 421.785156 184.617188 414.367188 191.605469 408.34375 200.054688 C 405.132812 200.054688 401.921875 200.054688 398.714844 200.054688 C 404.488281 191.683594 411.21875 184.15625 419.210938 177.835938 C 424.957031 173.289062 424.941406 173.464844 421.605469 166.976562 C 417.871094 159.714844 416.027344 151.769531 413.75 143.996094 C 411.023438 134.695312 408.851562 125.257812 407.203125 115.707031 C 405.503906 105.847656 404.46875 95.914062 405.210938 85.917969 C 405.957031 75.851562 405.664062 65.65625 408.140625 55.777344 C 410.945312 44.5625 413.742188 33.277344 419.78125 23.257812 C 425.464844 13.820312 432.867188 6.167969 444.085938 3.261719 C 454.273438 0.621094 465.523438 6.738281 471.367188 14.996094 C 480.84375 28.382812 485.304688 43.566406 488.867188 59.152344 C 493.03125 77.355469 494.460938 95.917969 496.175781 114.464844 C 497.269531 126.261719 497.464844 138.085938 498.542969 149.867188 C 498.769531 152.335938 498.332031 155.484375 502.226562 155.933594 C 508 156.597656 508.75 155.941406 508.550781 150.097656 C 507.855469 130.011719 508.351562 110.015625 511.527344 90.09375 C 514.832031 69.367188 519.382812 49.027344 529.824219 30.59375 C 535.746094 20.140625 543.054688 10.582031 554.550781 5.355469 C 561.195312 2.332031 567.65625 3.589844 573.738281 6.882812 C 583.789062 12.328125 587.210938 22.230469 590.207031 32.265625 C 594.003906 44.96875 595.976562 58.070312 595.976562 71.226562 C 595.980469 94.835938 593.21875 118.175781 586.835938 141.042969 C 583.863281 151.679688 580.523438 162.179688 577.011719 172.632812 C 576.152344 175.1875 576.445312 176.894531 578.71875 178.433594 C 585.722656 183.183594 590.800781 190.023438 597.179688 195.46875 C 598.589844 196.671875 599.890625 198.070312 600.207031 200.054688 C 596.996094 200.058594 593.78125 200.058594 590.574219 200.058594 Z M 590.574219 200.058594 " fill-opacity="1" fill-rule="nonzero"/></g><g fill="#ffffff" fill-opacity="1"><g transform="translate(0.294186, 254.833001)"><g><path d="M 29.296875 -54.171875 C 48.242188 -54.171875 57.71875 -45.140625 57.71875 -27.078125 C 57.71875 -9.023438 48.242188 0 29.296875 0 L 5.828125 0 L 5.828125 -54.171875 Z M 23.234375 -12.984375 L 28.96875 -12.984375 C 36.269531 -12.984375 39.921875 -16.894531 39.921875 -24.71875 L 39.921875 -29.453125 C 39.921875 -37.265625 36.269531 -41.171875 28.96875 -41.171875 L 23.234375 -41.171875 Z M 23.234375 -12.984375 "/></g></g></g><g fill="#ffffff" fill-opacity="1"><g transform="translate(61.542816, 254.833001)"><g><path d="M 26.21875 -42.515625 C 33.507812 -42.515625 39.242188 -40.664062 43.421875 -36.96875 C 47.597656 -33.269531 49.6875 -27.875 49.6875 -20.78125 C 49.6875 -13.695312 47.597656 -8.304688 43.421875 -4.609375 C 39.242188 -0.910156 33.507812 0.9375 26.21875 0.9375 C 18.925781 0.9375 13.203125 -0.894531 9.046875 -4.5625 C 4.898438 -8.238281 2.828125 -13.644531 2.828125 -20.78125 C 2.828125 -27.925781 4.898438 -33.332031 9.046875 -37 C 13.203125 -40.675781 18.925781 -42.515625 26.21875 -42.515625 Z M 26.21875 -31.890625 C 21.070312 -31.890625 18.5 -28.921875 18.5 -22.984375 L 18.5 -18.5 C 18.5 -12.625 21.070312 -9.6875 26.21875 -9.6875 C 31.414062 -9.6875 34.015625 -12.625 34.015625 -18.5 L 34.015625 -22.984375 C 34.015625 -28.921875 31.414062 -31.890625 26.21875 -31.890625 Z M 26.21875 -31.890625 "/></g></g></g><g fill="#ffffff" fill-opacity="1"><g transform="translate(114.052883, 254.833001)"><g><path d="M 39.453125 0 L 22.046875 0 L 22.046875 -21.015625 L 0.546875 -54.171875 L 20.546875 -54.171875 L 30.9375 -36.140625 L 31.25 -36.140625 L 41.65625 -54.171875 L 60.625 -54.171875 L 39.453125 -21.015625 Z M 39.453125 0 "/></g></g></g><g fill="#ffffff" fill-opacity="1"><g transform="translate(175.301512, 254.833001)"><g><path d="M 26.21875 -42.515625 C 33.832031 -42.515625 39.644531 -40.726562 43.65625 -37.15625 C 47.675781 -33.59375 49.6875 -28.132812 49.6875 -20.78125 L 49.6875 -18.109375 L 18.5 -18.109375 C 18.5 -15.117188 19.164062 -12.859375 20.5 -11.328125 C 21.84375 -9.804688 23.957031 -9.046875 26.84375 -9.046875 C 29.46875 -9.046875 31.394531 -9.597656 32.625 -10.703125 C 33.863281 -11.804688 34.484375 -13.273438 34.484375 -15.109375 L 49.6875 -15.109375 C 49.6875 -10.078125 47.769531 -6.144531 43.9375 -3.3125 C 40.101562 -0.476562 34.507812 0.9375 27.15625 0.9375 C 19.445312 0.9375 13.460938 -0.859375 9.203125 -4.453125 C 4.953125 -8.046875 2.828125 -13.488281 2.828125 -20.78125 C 2.828125 -27.925781 4.898438 -33.332031 9.046875 -37 C 13.203125 -40.675781 18.925781 -42.515625 26.21875 -42.515625 Z M 26.84375 -32.515625 C 21.914062 -32.515625 19.160156 -30.179688 18.578125 -25.515625 L 33.859375 -25.515625 C 33.859375 -27.660156 33.238281 -29.363281 32 -30.625 C 30.769531 -31.882812 29.050781 -32.515625 26.84375 -32.515625 Z M 26.84375 -32.515625 "/></g></g></g><g fill="#ffffff" fill-opacity="1"><g transform="translate(227.81158, 254.833001)"><g><path d="M 25.28125 -42.515625 C 31.625 -42.515625 36.789062 -41.453125 40.78125 -39.328125 C 44.769531 -37.203125 46.765625 -33.75 46.765625 -28.96875 L 46.765625 -12.75 C 46.765625 -11.863281 46.972656 -11.128906 47.390625 -10.546875 C 47.816406 -9.972656 48.445312 -9.6875 49.28125 -9.6875 L 52.125 -9.6875 L 52.125 -0.625 C 51.96875 -0.519531 51.5625 -0.347656 50.90625 -0.109375 C 50.25 0.117188 49.316406 0.347656 48.109375 0.578125 C 46.898438 0.816406 45.507812 0.9375 43.9375 0.9375 C 40.894531 0.9375 38.390625 0.476562 36.421875 -0.4375 C 34.453125 -1.351562 33.097656 -2.625 32.359375 -4.25 C 30.367188 -2.675781 28.140625 -1.414062 25.671875 -0.46875 C 23.203125 0.46875 20.3125 0.9375 17 0.9375 C 7.238281 0.9375 2.359375 -2.941406 2.359375 -10.703125 C 2.359375 -14.742188 3.445312 -17.828125 5.625 -19.953125 C 7.800781 -22.078125 10.9375 -23.535156 15.03125 -24.328125 C 19.125 -25.117188 24.476562 -25.515625 31.09375 -25.515625 L 31.09375 -27.5625 C 31.09375 -29.1875 30.53125 -30.414062 29.40625 -31.25 C 28.28125 -32.09375 26.820312 -32.515625 25.03125 -32.515625 C 23.40625 -32.515625 22 -32.222656 20.8125 -31.640625 C 19.632812 -31.066406 19.046875 -30.148438 19.046875 -28.890625 L 19.046875 -28.578125 L 3.625 -28.578125 C 3.570312 -28.835938 3.546875 -29.207031 3.546875 -29.6875 C 3.546875 -33.625 5.421875 -36.742188 9.171875 -39.046875 C 12.921875 -41.359375 18.289062 -42.515625 25.28125 -42.515625 Z M 31.09375 -18.109375 C 26.632812 -18.109375 23.34375 -17.625 21.21875 -16.65625 C 19.09375 -15.6875 18.03125 -14.382812 18.03125 -12.75 C 18.03125 -10.125 19.816406 -8.8125 23.390625 -8.8125 C 25.429688 -8.8125 27.222656 -9.363281 28.765625 -10.46875 C 30.316406 -11.570312 31.09375 -12.9375 31.09375 -14.5625 Z M 31.09375 -18.109375 "/></g></g></g><g fill="#ffffff" fill-opacity="1"><g transform="translate(280.321659, 254.833001)"><g><path d="M 20.390625 -37.234375 C 22.066406 -38.921875 24.035156 -40.222656 26.296875 -41.140625 C 28.554688 -42.054688 30.921875 -42.515625 33.390625 -42.515625 C 38.210938 -42.515625 41.832031 -41.175781 44.25 -38.5 C 46.664062 -35.820312 47.875 -31.960938 47.875 -26.921875 L 47.875 0 L 32.203125 0 L 32.203125 -25.03125 C 32.203125 -26.820312 31.742188 -28.253906 30.828125 -29.328125 C 29.910156 -30.398438 28.609375 -30.9375 26.921875 -30.9375 C 24.984375 -30.9375 23.410156 -30.304688 22.203125 -29.046875 C 20.992188 -27.785156 20.390625 -26.238281 20.390625 -24.40625 L 20.390625 0 L 4.71875 0 L 4.71875 -57.078125 L 20.390625 -57.078125 Z M 20.390625 -37.234375 "/></g></g></g><g fill="#ffffff" fill-opacity="1"><g transform="translate(332.831715, 254.833001)"><g><path d="M 41.890625 -54.171875 C 44.617188 -54.171875 47.125 -53.601562 49.40625 -52.46875 C 51.6875 -51.34375 53.492188 -49.753906 54.828125 -47.703125 C 56.171875 -45.660156 56.84375 -43.378906 56.84375 -40.859375 C 56.84375 -34.191406 53.828125 -29.992188 47.796875 -28.265625 L 47.796875 -27.953125 C 54.671875 -26.378906 58.109375 -21.863281 58.109375 -14.40625 C 58.109375 -11.570312 57.410156 -9.066406 56.015625 -6.890625 C 54.628906 -4.710938 52.726562 -3.019531 50.3125 -1.8125 C 47.894531 -0.601562 45.242188 0 42.359375 0 L 5.828125 0 L 5.828125 -54.171875 Z M 23.234375 -33.0625 L 35.1875 -33.0625 C 36.34375 -33.0625 37.300781 -33.46875 38.0625 -34.28125 C 38.820312 -35.101562 39.203125 -36.113281 39.203125 -37.3125 L 39.203125 -38.109375 C 39.203125 -39.265625 38.804688 -40.25 38.015625 -41.0625 C 37.234375 -41.875 36.289062 -42.28125 35.1875 -42.28125 L 23.234375 -42.28125 Z M 23.234375 -12.59375 L 36.453125 -12.59375 C 37.609375 -12.59375 38.566406 -13 39.328125 -13.8125 C 40.085938 -14.625 40.46875 -15.632812 40.46875 -16.84375 L 40.46875 -17.640625 C 40.46875 -18.847656 40.085938 -19.859375 39.328125 -20.671875 C 38.566406 -21.484375 37.609375 -21.890625 36.453125 -21.890625 L 23.234375 -21.890625 Z M 23.234375 -12.59375 "/></g></g></g><g fill="#ffffff" fill-opacity="1"><g transform="translate(394.080367, 254.833001)"><g><path d="M 34.875 0 L 33.859375 -6.296875 C 32.234375 -4.035156 30.09375 -2.265625 27.4375 -0.984375 C 24.789062 0.296875 21.992188 0.9375 19.046875 0.9375 C 14.222656 0.9375 10.601562 -0.398438 8.1875 -3.078125 C 5.769531 -5.753906 4.5625 -9.609375 4.5625 -14.640625 L 4.5625 -41.578125 L 20.234375 -41.578125 L 20.234375 -16.53125 C 20.234375 -14.75 20.691406 -13.316406 21.609375 -12.234375 C 22.523438 -11.160156 23.828125 -10.625 25.515625 -10.625 C 27.453125 -10.625 29.023438 -11.253906 30.234375 -12.515625 C 31.441406 -13.773438 32.046875 -15.328125 32.046875 -17.171875 L 32.046875 -41.578125 L 47.71875 -41.578125 L 47.71875 0 Z M 34.875 0 "/></g></g></g><g fill="#ffffff" fill-opacity="1"><g transform="translate(446.590423, 254.833001)"><g><path d="M 33.390625 -42.515625 C 38.210938 -42.515625 41.832031 -41.175781 44.25 -38.5 C 46.664062 -35.820312 47.875 -31.960938 47.875 -26.921875 L 47.875 0 L 32.203125 0 L 32.203125 -25.03125 C 32.203125 -26.820312 31.742188 -28.253906 30.828125 -29.328125 C 29.910156 -30.398438 28.609375 -30.9375 26.921875 -30.9375 C 24.984375 -30.9375 23.410156 -30.304688 22.203125 -29.046875 C 20.992188 -27.785156 20.390625 -26.238281 20.390625 -24.40625 L 20.390625 0 L 4.71875 0 L 4.71875 -41.578125 L 17.5625 -41.578125 L 18.578125 -35.265625 C 20.203125 -37.472656 22.335938 -39.234375 24.984375 -40.546875 C 27.640625 -41.859375 30.441406 -42.515625 33.390625 -42.515625 Z M 33.390625 -42.515625 "/></g></g></g><g fill="#ffffff" fill-opacity="1"><g transform="translate(499.100479, 254.833001)"><g><path d="M 33.390625 -42.515625 C 38.210938 -42.515625 41.832031 -41.175781 44.25 -38.5 C 46.664062 -35.820312 47.875 -31.960938 47.875 -26.921875 L 47.875 0 L 32.203125 0 L 32.203125 -25.03125 C 32.203125 -26.820312 31.742188 -28.253906 30.828125 -29.328125 C 29.910156 -30.398438 28.609375 -30.9375 26.921875 -30.9375 C 24.984375 -30.9375 23.410156 -30.304688 22.203125 -29.046875 C 20.992188 -27.785156 20.390625 -26.238281 20.390625 -24.40625 L 20.390625 0 L 4.71875 0 L 4.71875 -41.578125 L 17.5625 -41.578125 L 18.578125 -35.265625 C 20.203125 -37.472656 22.335938 -39.234375 24.984375 -40.546875 C 27.640625 -41.859375 30.441406 -42.515625 33.390625 -42.515625 Z M 33.390625 -42.515625 "/></g></g></g><g clip-path="url(#932952b970)"><g fill="#ffffff" fill-opacity="1"><g transform="translate(551.610536, 254.833001)"><g><path d="M 33.296875 -1.265625 C 31.148438 4.566406 28.515625 8.988281 25.390625 12 C 22.265625 15.019531 17.894531 16.53125 12.28125 16.53125 C 8.875 16.53125 5.859375 16.054688 3.234375 15.109375 L 3.234375 5.75 L 9.53125 5.75 C 13.46875 5.75 15.800781 3.832031 16.53125 0 L 0 -41.578125 L 16.84375 -41.578125 L 24.796875 -13.9375 L 25.359375 -13.9375 L 32.671875 -41.578125 L 48.109375 -41.578125 Z M 33.296875 -1.265625 "/></g></g></g></g></svg>