<svg xmlns="http://www.w3.org/2000/svg" xmlns:xlink="http://www.w3.org/1999/xlink" width="800" zoomAndPan="magnify" viewBox="0 0 600 449.999984" height="600" preserveAspectRatio="xMidYMid meet" version="1.0"><defs><g/><clipPath id="a3ee967a0d"><path d="M 390.679688 120 L 536.179688 120 L 536.179688 263.304688 L 390.679688 263.304688 Z M 390.679688 120 " clip-rule="nonzero"/></clipPath></defs><rect x="-60" width="720" fill="#ffffff" y="-44.999998" height="539.99998" fill-opacity="0"/><rect x="-60" width="720" fill="#ffffff" y="-44.999998" height="539.99998" fill-opacity="0"/><g clip-path="url(#a3ee967a0d)"><path fill="#ff3b77" d="M 529.207031 263.285156 C 525.109375 258.363281 520.320312 254.214844 515.023438 250.640625 C 511.734375 248.421875 511.644531 247.375 513.285156 243.679688 C 516.671875 236.070312 518.65625 227.984375 520.980469 220.011719 C 525.898438 203.105469 527.859375 185.785156 527.839844 168.242188 C 527.828125 157.148438 525.972656 146.320312 521.585938 136.042969 C 520.484375 133.460938 519.019531 130.984375 516.84375 129.179688 C 512.882812 125.890625 508.535156 124.917969 503.714844 127.550781 C 500.773438 129.152344 498.191406 131.199219 496.164062 133.777344 C 491.746094 139.398438 488.210938 145.46875 485.539062 152.234375 C 481.960938 161.292969 479.765625 170.628906 477.957031 180.09375 C 476.128906 189.671875 475.667969 199.414062 475.203125 209.152344 C 474.832031 216.890625 475.054688 224.582031 475.710938 232.289062 C 475.992188 235.597656 474.433594 237.25 471.125 237.128906 C 468.324219 237.027344 465.550781 237.015625 462.757812 237.195312 C 459.179688 237.421875 457.496094 236.246094 457.425781 232.714844 C 457.292969 225.953125 456.5 219.234375 456.304688 212.488281 C 456.046875 203.695312 455.492188 194.933594 454.203125 186.238281 C 452.902344 177.472656 451.847656 168.660156 449.769531 160.019531 C 447.507812 150.617188 444.855469 141.355469 439.34375 133.253906 C 436.820312 129.550781 433.78125 126.375 428.894531 125.710938 C 423.566406 124.984375 419.476562 127.488281 415.96875 130.839844 C 409.800781 136.742188 406.566406 144.457031 404.410156 152.5 C 402.382812 160.042969 401.578125 167.859375 401.210938 175.667969 C 400.941406 181.335938 400.246094 187.101562 400.957031 192.671875 C 401.855469 199.71875 402.808594 206.832031 404.867188 213.695312 C 406.773438 220.066406 407.71875 226.722656 410.652344 232.789062 C 412.164062 235.914062 413.546875 239.101562 415.023438 242.238281 C 416.113281 244.550781 416.015625 246.519531 413.675781 248.019531 C 407.359375 252.078125 402.003906 257.152344 397.65625 263.28125 C 395.339844 263.28125 393.019531 263.28125 390.703125 263.28125 C 394.871094 257.207031 399.730469 251.746094 405.5 247.160156 C 409.648438 243.859375 409.636719 243.984375 407.226562 239.277344 C 404.535156 234.003906 403.203125 228.238281 401.558594 222.597656 C 399.589844 215.847656 398.023438 209 396.832031 202.066406 C 395.605469 194.914062 394.859375 187.703125 395.394531 180.449219 C 395.933594 173.144531 395.722656 165.746094 397.507812 158.574219 C 399.535156 150.4375 401.550781 142.25 405.914062 134.976562 C 410.015625 128.125 415.359375 122.574219 423.457031 120.460938 C 430.8125 118.546875 438.933594 122.988281 443.152344 128.980469 C 449.992188 138.695312 453.214844 149.710938 455.785156 161.023438 C 458.792969 174.234375 459.824219 187.707031 461.0625 201.167969 C 461.851562 209.726562 461.992188 218.308594 462.769531 226.859375 C 462.933594 228.652344 462.621094 230.9375 465.429688 231.261719 C 469.597656 231.746094 470.140625 231.269531 469.996094 227.027344 C 469.496094 212.449219 469.851562 197.9375 472.144531 183.480469 C 474.53125 168.4375 477.816406 153.675781 485.351562 140.300781 C 489.628906 132.710938 494.902344 125.773438 503.203125 121.984375 C 508 119.789062 512.664062 120.703125 517.054688 123.09375 C 524.308594 127.046875 526.78125 134.230469 528.945312 141.515625 C 531.683594 150.730469 533.105469 160.242188 533.105469 169.789062 C 533.109375 186.921875 531.117188 203.863281 526.507812 220.457031 C 524.363281 228.175781 521.953125 235.792969 519.417969 243.382812 C 518.796875 245.234375 519.007812 246.472656 520.648438 247.59375 C 525.707031 251.039062 529.371094 256.003906 533.976562 259.953125 C 534.996094 260.828125 535.933594 261.84375 536.160156 263.28125 C 533.84375 263.285156 531.523438 263.285156 529.207031 263.285156 Z M 529.207031 263.285156 " fill-opacity="1" fill-rule="nonzero"/></g><g fill="#000000" fill-opacity="1"><g transform="translate(31.465675, 312.476227)"><g><path d="M 26.25 -48.53125 C 43.21875 -48.53125 51.703125 -40.441406 51.703125 -24.265625 C 51.703125 -8.085938 43.21875 0 26.25 0 L 5.21875 0 L 5.21875 -48.53125 Z M 20.8125 -11.640625 L 25.96875 -11.640625 C 32.5 -11.640625 35.765625 -15.144531 35.765625 -22.15625 L 35.765625 -26.390625 C 35.765625 -33.390625 32.5 -36.890625 25.96875 -36.890625 L 20.8125 -36.890625 Z M 20.8125 -11.640625 "/></g></g></g><g fill="#000000" fill-opacity="1"><g transform="translate(86.34254, 312.476227)"><g><path d="M 23.484375 -38.09375 C 30.023438 -38.09375 35.164062 -36.429688 38.90625 -33.109375 C 42.644531 -29.796875 44.515625 -24.96875 44.515625 -18.625 C 44.515625 -12.269531 42.644531 -7.4375 38.90625 -4.125 C 35.164062 -0.8125 30.023438 0.84375 23.484375 0.84375 C 16.953125 0.84375 11.828125 -0.800781 8.109375 -4.09375 C 4.398438 -7.382812 2.546875 -12.226562 2.546875 -18.625 C 2.546875 -25.019531 4.398438 -29.863281 8.109375 -33.15625 C 11.828125 -36.445312 16.953125 -38.09375 23.484375 -38.09375 Z M 23.484375 -28.578125 C 18.878906 -28.578125 16.578125 -25.914062 16.578125 -20.59375 L 16.578125 -16.578125 C 16.578125 -11.304688 18.878906 -8.671875 23.484375 -8.671875 C 28.140625 -8.671875 30.46875 -11.304688 30.46875 -16.578125 L 30.46875 -20.59375 C 30.46875 -25.914062 28.140625 -28.578125 23.484375 -28.578125 Z M 23.484375 -28.578125 "/></g></g></g><g fill="#000000" fill-opacity="1"><g transform="translate(133.389912, 312.476227)"><g><path d="M 35.34375 0 L 19.75 0 L 19.75 -18.84375 L 0.5 -48.53125 L 18.40625 -48.53125 L 27.71875 -32.375 L 28 -32.375 L 37.3125 -48.53125 L 54.328125 -48.53125 L 35.34375 -18.84375 Z M 35.34375 0 "/></g></g></g><g fill="#000000" fill-opacity="1"><g transform="translate(188.266777, 312.476227)"><g><path d="M 23.484375 -38.09375 C 30.304688 -38.09375 35.515625 -36.492188 39.109375 -33.296875 C 42.710938 -30.097656 44.515625 -25.207031 44.515625 -18.625 L 44.515625 -16.21875 L 16.578125 -16.21875 C 16.578125 -13.539062 17.175781 -11.519531 18.375 -10.15625 C 19.570312 -8.789062 21.46875 -8.109375 24.0625 -8.109375 C 26.40625 -8.109375 28.128906 -8.601562 29.234375 -9.59375 C 30.347656 -10.582031 30.90625 -11.898438 30.90625 -13.546875 L 44.515625 -13.546875 C 44.515625 -9.023438 42.796875 -5.492188 39.359375 -2.953125 C 35.929688 -0.421875 30.925781 0.84375 24.34375 0.84375 C 17.425781 0.84375 12.0625 -0.765625 8.25 -3.984375 C 4.445312 -7.203125 2.546875 -12.082031 2.546875 -18.625 C 2.546875 -25.019531 4.398438 -29.863281 8.109375 -33.15625 C 11.828125 -36.445312 16.953125 -38.09375 23.484375 -38.09375 Z M 24.0625 -29.140625 C 19.632812 -29.140625 17.164062 -27.046875 16.65625 -22.859375 L 30.328125 -22.859375 C 30.328125 -24.785156 29.773438 -26.3125 28.671875 -27.4375 C 27.566406 -28.570312 26.03125 -29.140625 24.0625 -29.140625 Z M 24.0625 -29.140625 "/></g></g></g><g fill="#000000" fill-opacity="1"><g transform="translate(235.314149, 312.476227)"><g><path d="M 22.640625 -38.09375 C 28.335938 -38.09375 32.972656 -37.140625 36.546875 -35.234375 C 40.117188 -33.328125 41.90625 -30.238281 41.90625 -25.96875 L 41.90625 -11.421875 C 41.90625 -10.628906 42.09375 -9.972656 42.46875 -9.453125 C 42.84375 -8.929688 43.40625 -8.671875 44.15625 -8.671875 L 46.703125 -8.671875 L 46.703125 -0.5625 C 46.554688 -0.46875 46.191406 -0.3125 45.609375 -0.09375 C 45.023438 0.113281 44.191406 0.320312 43.109375 0.53125 C 42.023438 0.738281 40.773438 0.84375 39.359375 0.84375 C 36.628906 0.84375 34.382812 0.429688 32.625 -0.390625 C 30.863281 -1.210938 29.65625 -2.351562 29 -3.8125 C 27.207031 -2.394531 25.207031 -1.265625 23 -0.421875 C 20.789062 0.421875 18.203125 0.84375 15.234375 0.84375 C 6.484375 0.84375 2.109375 -2.632812 2.109375 -9.59375 C 2.109375 -13.21875 3.082031 -15.976562 5.03125 -17.875 C 6.988281 -19.78125 9.800781 -21.085938 13.46875 -21.796875 C 17.144531 -22.503906 21.941406 -22.859375 27.859375 -22.859375 L 27.859375 -24.6875 C 27.859375 -26.144531 27.351562 -27.25 26.34375 -28 C 25.332031 -28.757812 24.03125 -29.140625 22.4375 -29.140625 C 20.976562 -29.140625 19.71875 -28.878906 18.65625 -28.359375 C 17.601562 -27.835938 17.078125 -27.015625 17.078125 -25.890625 L 17.078125 -25.609375 L 3.25 -25.609375 C 3.195312 -25.847656 3.171875 -26.175781 3.171875 -26.59375 C 3.171875 -30.125 4.851562 -32.921875 8.21875 -34.984375 C 11.582031 -37.054688 16.390625 -38.09375 22.640625 -38.09375 Z M 27.859375 -16.21875 C 23.867188 -16.21875 20.921875 -15.78125 19.015625 -14.90625 C 17.109375 -14.039062 16.15625 -12.878906 16.15625 -11.421875 C 16.15625 -9.078125 17.753906 -7.90625 20.953125 -7.90625 C 22.785156 -7.90625 24.394531 -8.394531 25.78125 -9.375 C 27.164062 -10.363281 27.859375 -11.585938 27.859375 -13.046875 Z M 27.859375 -16.21875 "/></g></g></g><g fill="#000000" fill-opacity="1"><g transform="translate(282.361522, 312.476227)"><g><path d="M 18.265625 -33.375 C 19.773438 -34.875 21.539062 -36.035156 23.5625 -36.859375 C 25.582031 -37.679688 27.695312 -38.09375 29.90625 -38.09375 C 34.238281 -38.09375 37.484375 -36.894531 39.640625 -34.5 C 41.804688 -32.101562 42.890625 -28.644531 42.890625 -24.125 L 42.890625 0 L 28.859375 0 L 28.859375 -22.4375 C 28.859375 -24.03125 28.445312 -25.304688 27.625 -26.265625 C 26.800781 -27.234375 25.632812 -27.71875 24.125 -27.71875 C 22.382812 -27.71875 20.972656 -27.15625 19.890625 -26.03125 C 18.804688 -24.90625 18.265625 -23.519531 18.265625 -21.875 L 18.265625 0 L 4.234375 0 L 4.234375 -51.140625 L 18.265625 -51.140625 Z M 18.265625 -33.375 "/></g></g></g><g fill="#000000" fill-opacity="1"><g transform="translate(329.408894, 312.476227)"><g><path d="M 37.53125 -48.53125 C 39.976562 -48.53125 42.222656 -48.023438 44.265625 -47.015625 C 46.316406 -46.003906 47.941406 -44.582031 49.140625 -42.75 C 50.335938 -40.914062 50.9375 -38.867188 50.9375 -36.609375 C 50.9375 -30.640625 48.234375 -26.878906 42.828125 -25.328125 L 42.828125 -25.046875 C 48.984375 -23.628906 52.0625 -19.582031 52.0625 -12.90625 C 52.0625 -10.363281 51.4375 -8.117188 50.1875 -6.171875 C 48.945312 -4.222656 47.242188 -2.707031 45.078125 -1.625 C 42.910156 -0.539062 40.535156 0 37.953125 0 L 5.21875 0 L 5.21875 -48.53125 Z M 20.8125 -29.625 L 31.53125 -29.625 C 32.570312 -29.625 33.429688 -29.988281 34.109375 -30.71875 C 34.785156 -31.445312 35.125 -32.351562 35.125 -33.4375 L 35.125 -34.140625 C 35.125 -35.179688 34.769531 -36.066406 34.0625 -36.796875 C 33.363281 -37.523438 32.519531 -37.890625 31.53125 -37.890625 L 20.8125 -37.890625 Z M 20.8125 -11.28125 L 32.65625 -11.28125 C 33.695312 -11.28125 34.554688 -11.644531 35.234375 -12.375 C 35.921875 -13.101562 36.265625 -14.007812 36.265625 -15.09375 L 36.265625 -15.796875 C 36.265625 -16.878906 35.921875 -17.785156 35.234375 -18.515625 C 34.554688 -19.242188 33.695312 -19.609375 32.65625 -19.609375 L 20.8125 -19.609375 Z M 20.8125 -11.28125 "/></g></g></g><g fill="#000000" fill-opacity="1"><g transform="translate(384.285759, 312.476227)"><g><path d="M 31.25 0 L 30.328125 -5.640625 C 28.867188 -3.617188 26.953125 -2.03125 24.578125 -0.875 C 22.203125 0.269531 19.703125 0.84375 17.078125 0.84375 C 12.742188 0.84375 9.492188 -0.351562 7.328125 -2.75 C 5.171875 -5.144531 4.09375 -8.601562 4.09375 -13.125 L 4.09375 -37.25 L 18.125 -37.25 L 18.125 -14.8125 C 18.125 -13.21875 18.535156 -11.9375 19.359375 -10.96875 C 20.179688 -10.007812 21.347656 -9.53125 22.859375 -9.53125 C 24.597656 -9.53125 26.007812 -10.09375 27.09375 -11.21875 C 28.175781 -12.34375 28.71875 -13.726562 28.71875 -15.375 L 28.71875 -37.25 L 42.75 -37.25 L 42.75 0 Z M 31.25 0 "/></g></g></g><g fill="#000000" fill-opacity="1"><g transform="translate(431.333131, 312.476227)"><g><path d="M 29.90625 -38.09375 C 34.238281 -38.09375 37.484375 -36.894531 39.640625 -34.5 C 41.804688 -32.101562 42.890625 -28.644531 42.890625 -24.125 L 42.890625 0 L 28.859375 0 L 28.859375 -22.4375 C 28.859375 -24.03125 28.445312 -25.304688 27.625 -26.265625 C 26.800781 -27.234375 25.632812 -27.71875 24.125 -27.71875 C 22.382812 -27.71875 20.972656 -27.15625 19.890625 -26.03125 C 18.804688 -24.90625 18.265625 -23.519531 18.265625 -21.875 L 18.265625 0 L 4.234375 0 L 4.234375 -37.25 L 15.734375 -37.25 L 16.65625 -31.609375 C 18.113281 -33.578125 20.03125 -35.148438 22.40625 -36.328125 C 24.78125 -37.503906 27.28125 -38.09375 29.90625 -38.09375 Z M 29.90625 -38.09375 "/></g></g></g><g fill="#000000" fill-opacity="1"><g transform="translate(478.380531, 312.476227)"><g><path d="M 29.90625 -38.09375 C 34.238281 -38.09375 37.484375 -36.894531 39.640625 -34.5 C 41.804688 -32.101562 42.890625 -28.644531 42.890625 -24.125 L 42.890625 0 L 28.859375 0 L 28.859375 -22.4375 C 28.859375 -24.03125 28.445312 -25.304688 27.625 -26.265625 C 26.800781 -27.234375 25.632812 -27.71875 24.125 -27.71875 C 22.382812 -27.71875 20.972656 -27.15625 19.890625 -26.03125 C 18.804688 -24.90625 18.265625 -23.519531 18.265625 -21.875 L 18.265625 0 L 4.234375 0 L 4.234375 -37.25 L 15.734375 -37.25 L 16.65625 -31.609375 C 18.113281 -33.578125 20.03125 -35.148438 22.40625 -36.328125 C 24.78125 -37.503906 27.28125 -38.09375 29.90625 -38.09375 Z M 29.90625 -38.09375 "/></g></g></g><g fill="#000000" fill-opacity="1"><g transform="translate(525.427904, 312.476227)"><g><path d="M 29.84375 -1.125 C 27.914062 4.09375 25.550781 8.050781 22.75 10.75 C 19.945312 13.457031 16.03125 14.8125 11 14.8125 C 7.945312 14.8125 5.242188 14.390625 2.890625 13.546875 L 2.890625 5.15625 L 8.53125 5.15625 C 12.0625 5.15625 14.15625 3.4375 14.8125 0 L 0 -37.25 L 15.09375 -37.25 L 22.21875 -12.484375 L 22.71875 -12.484375 L 29.28125 -37.25 L 43.109375 -37.25 Z M 29.84375 -1.125 "/></g></g></g></svg>