<svg xmlns="http://www.w3.org/2000/svg" xmlns:xlink="http://www.w3.org/1999/xlink" width="500" zoomAndPan="magnify" viewBox="0 0 375 374.999991" height="500" preserveAspectRatio="xMidYMid meet" version="1.0"><defs><clipPath id="a625e32658"><path d="M 0.0820312 54.519531 L 374.941406 54.519531 L 374.941406 320.769531 L 0.0820312 320.769531 Z M 0.0820312 54.519531 " clip-rule="nonzero"/></clipPath></defs><g clip-path="url(#a625e32658)"><path fill="#ff3b77" d="M 362.847656 300.929688 C 334.726562 275.191406 272.183594 219.019531 228.65625 187.667969 C 272.132812 156.316406 334.710938 100.105469 362.847656 74.359375 Z M 21.476562 308.660156 C 63.125 270.046875 119.617188 220.625 155.714844 194.878906 C 169.601562 204.085938 180.878906 209.84375 187.457031 209.914062 C 193.441406 209.914062 204.546875 204.160156 218.3125 194.902344 C 253.203125 220.117188 309.085938 268.21875 353.363281 308.660156 Z M 12.171875 74.511719 C 39.957031 100.332031 101.511719 156.351562 145.269531 187.644531 C 101.511719 218.933594 39.957031 274.960938 12.171875 300.777344 Z M 353.363281 66.628906 C 290.195312 124.332031 202.550781 197.816406 187.457031 197.8125 C 172.359375 197.804688 80.34375 121.207031 21.476562 66.628906 Z M 368.894531 54.519531 L 6.121094 54.519531 C 4.140625 54.515625 0.0625 56.15625 0.0820312 60.578125 L 0.0820312 314.714844 C 0.0625 317.203125 2.15625 320.753906 6.121094 320.765625 L 368.894531 320.765625 C 373.796875 320.90625 374.976562 317.46875 374.941406 314.714844 L 374.941406 60.578125 C 374.976562 58.828125 373.949219 54.476562 368.894531 54.519531 " fill-opacity="1" fill-rule="nonzero"/></g></svg>