<svg xmlns="http://www.w3.org/2000/svg" xmlns:xlink="http://www.w3.org/1999/xlink" width="500" zoomAndPan="magnify" viewBox="0 0 375 374.999991" height="500" preserveAspectRatio="xMidYMid meet" version="1.0"><path fill="#ff3b77" d="M 370.234375 245.757812 C 372.445312 242.351562 375.195312 238.113281 374.246094 232.726562 C 373.664062 229.414062 371.878906 226.660156 370.304688 224.230469 C 369.289062 222.664062 368.140625 220.890625 367.941406 219.773438 C 367.746094 218.652344 368.21875 216.589844 368.636719 214.769531 C 369.4375 211.300781 370.339844 207.371094 368.882812 203.351562 C 367.390625 199.242188 363.976562 196.65625 361.230469 194.582031 C 359.785156 193.484375 358.144531 192.246094 357.628906 191.351562 C 357.082031 190.402344 356.820312 188.324219 356.589844 186.488281 C 356.167969 183.109375 355.640625 178.90625 352.871094 175.605469 C 350.085938 172.285156 346.011719 171.035156 342.734375 170.03125 C 340.984375 169.496094 339 168.886719 338.1875 168.207031 C 337.371094 167.519531 336.421875 165.664062 335.582031 164.027344 C 334.027344 160.984375 332.089844 157.199219 328.351562 155.035156 C 324.621094 152.875 320.378906 153.085938 316.96875 153.253906 C 315.128906 153.347656 313.039062 153.449219 312.027344 153.082031 C 311.566406 152.914062 310.988281 152.507812 310.363281 152 C 309.484375 111.652344 293.320312 73.851562 264.65625 45.296875 C 235.332031 16.085938 196.398438 0 155.019531 0 C 69.332031 0 -0.378906 69.746094 -0.378906 155.476562 C -0.378906 241.207031 69.332031 310.953125 155.019531 310.953125 C 176.605469 310.953125 197.457031 306.609375 217.050781 298.054688 C 217.351562 298.1875 217.652344 298.316406 217.953125 298.4375 L 196.003906 345.605469 C 195.050781 347.648438 195.316406 350.050781 196.683594 351.839844 C 198.054688 353.625 200.304688 354.503906 202.523438 354.117188 L 227.9375 349.675781 L 240.898438 371.992188 C 241.984375 373.859375 243.976562 375 246.125 375 C 246.214844 375 246.308594 375 246.398438 374.996094 C 248.648438 374.890625 250.65625 373.546875 251.605469 371.503906 L 273.183594 325.132812 C 274.710938 324.667969 276.15625 324.0625 277.527344 323.484375 C 279.242188 322.761719 281.179688 321.945312 282.265625 321.941406 C 282.265625 321.941406 282.265625 321.941406 282.269531 321.941406 C 283.277344 321.941406 285.160156 322.738281 286.820312 323.441406 C 289.597656 324.617188 292.96875 326.042969 296.667969 325.867188 L 312.269531 362.109375 C 313.160156 364.179688 315.128906 365.582031 317.375 365.75 C 317.523438 365.761719 317.675781 365.765625 317.824219 365.765625 C 319.902344 365.765625 321.851562 364.691406 322.960938 362.90625 L 336.5625 340.976562 L 361.835938 346.152344 C 364.042969 346.609375 366.316406 345.792969 367.738281 344.046875 C 369.160156 342.296875 369.492188 339.90625 368.601562 337.835938 L 350.675781 296.199219 C 351.460938 295.621094 352.203125 294.945312 352.867188 294.152344 C 355.636719 290.84375 356.164062 286.621094 356.589844 283.230469 C 356.816406 281.402344 357.074219 279.335938 357.609375 278.410156 C 358.136719 277.492188 359.796875 276.242188 361.261719 275.136719 C 363.992188 273.070312 367.394531 270.503906 368.878906 266.433594 C 370.355469 262.382812 369.410156 258.25 368.652344 254.933594 C 368.238281 253.128906 367.773438 251.089844 367.964844 250.003906 C 368.144531 248.980469 369.253906 247.269531 370.234375 245.757812 Z M 11.710938 155.476562 C 11.710938 76.417969 76 12.097656 155.019531 12.097656 C 230.039062 12.097656 291.984375 70.339844 297.863281 144 C 293.816406 143.425781 290.203125 144.941406 287 146.289062 C 285.289062 147.011719 283.351562 147.828125 282.265625 147.832031 C 282.261719 147.832031 282.261719 147.832031 282.261719 147.832031 C 281.25 147.832031 279.371094 147.035156 277.710938 146.332031 C 274.535156 144.992188 270.585938 143.320312 266.261719 144.082031 C 261.941406 144.84375 258.800781 147.765625 256.277344 150.113281 C 254.953125 151.34375 253.457031 152.734375 252.507812 153.082031 C 251.488281 153.449219 249.386719 153.347656 247.53125 153.253906 C 243.945312 153.078125 239.882812 152.875 236.175781 155.015625 C 232.410156 157.191406 230.464844 161 228.90625 164.054688 C 228.074219 165.683594 227.136719 167.523438 226.335938 168.199219 C 225.511719 168.894531 223.511719 169.511719 221.75 170.054688 C 220.417969 170.46875 218.949219 170.921875 217.492188 171.542969 C 207.371094 161.050781 194.894531 153.367188 181.238281 149.042969 C 193.699219 140.601562 201.902344 126.332031 201.902344 110.175781 C 201.902344 84.316406 180.871094 63.273438 155.019531 63.273438 C 129.171875 63.273438 108.140625 84.316406 108.140625 110.175781 C 108.140625 126.328125 116.339844 140.597656 128.796875 149.039062 C 93.703125 160.1875 68.207031 193.089844 68.207031 231.839844 C 68.207031 235.183594 70.914062 237.890625 74.253906 237.890625 L 190.472656 237.890625 C 191.1875 240.828125 192.789062 243.324219 194.226562 245.542969 C 195.242188 247.109375 196.390625 248.882812 196.589844 250 C 196.789062 251.121094 196.3125 253.183594 195.894531 255.003906 C 195.097656 258.472656 194.195312 262.402344 195.648438 266.421875 C 197.140625 270.53125 200.558594 273.117188 203.300781 275.191406 C 204.75 276.285156 206.390625 277.527344 206.90625 278.421875 C 207.453125 279.371094 207.714844 281.449219 207.941406 283.285156 C 208.140625 284.867188 208.363281 286.628906 208.828125 288.398438 C 191.757812 295.335938 173.691406 298.859375 155.019531 298.859375 C 76 298.855469 11.710938 234.535156 11.710938 155.476562 Z M 195.878906 214.839844 C 196.289062 216.644531 196.757812 218.683594 196.566406 219.765625 C 196.386719 220.792969 195.277344 222.503906 194.296875 224.011719 C 193.925781 224.582031 193.542969 225.175781 193.164062 225.792969 L 80.539062 225.792969 C 83.625 187.386719 115.851562 157.082031 155.019531 157.082031 C 175.554688 157.082031 195.058594 165.5 209.148438 180.308594 C 208.453125 182.441406 208.179688 184.625 207.941406 186.546875 C 207.714844 188.371094 207.457031 190.441406 206.921875 191.363281 C 206.394531 192.277344 204.738281 193.527344 203.273438 194.632812 C 200.542969 196.699219 197.140625 199.265625 195.652344 203.339844 C 194.175781 207.386719 195.121094 211.519531 195.878906 214.839844 Z M 155.019531 144.984375 C 135.835938 144.984375 120.230469 129.371094 120.230469 110.175781 C 120.230469 90.984375 135.835938 75.367188 155.019531 75.367188 C 174.203125 75.367188 189.808594 90.984375 189.808594 110.175781 C 189.808594 129.371094 174.203125 144.984375 155.019531 144.984375 Z M 245.535156 355.894531 L 236.273438 339.953125 C 235.003906 337.761719 232.5 336.601562 230.007812 337.03125 L 211.851562 340.207031 L 228.390625 304.667969 C 228.578125 305.027344 228.765625 305.390625 228.949219 305.746094 C 230.503906 308.789062 232.441406 312.574219 236.183594 314.738281 C 239.914062 316.894531 244.152344 316.6875 247.5625 316.515625 C 249.402344 316.425781 251.492188 316.320312 252.503906 316.691406 C 253.484375 317.050781 255 318.460938 256.332031 319.703125 C 257.601562 320.886719 259.027344 322.214844 260.683594 323.335938 Z M 334.859375 328.277344 C 332.378906 327.769531 329.847656 328.863281 328.511719 331.015625 L 318.792969 346.683594 L 307.472656 320.382812 C 307.742188 320.136719 308.003906 319.894531 308.257812 319.65625 C 309.578125 318.429688 311.074219 317.035156 312.023438 316.691406 C 313.046875 316.320312 315.148438 316.425781 317.003906 316.519531 C 320.585938 316.695312 324.652344 316.898438 328.355469 314.757812 C 332.125 312.578125 334.066406 308.773438 335.628906 305.714844 C 336.457031 304.089844 337.398438 302.246094 338.195312 301.574219 C 338.5 301.320312 338.960938 301.074219 339.511719 300.839844 L 352.914062 331.980469 Z M 362.339844 234.828125 C 362.460938 235.523438 360.921875 237.898438 360.09375 239.171875 C 358.488281 241.652344 356.667969 244.457031 356.058594 247.902344 C 355.441406 251.398438 356.199219 254.707031 356.867188 257.628906 C 357.203125 259.109375 357.773438 261.59375 357.519531 262.285156 C 357.261719 263 355.203125 264.554688 353.976562 265.480469 C 351.597656 267.277344 348.898438 269.316406 347.144531 272.355469 C 345.382812 275.402344 344.964844 278.765625 344.59375 281.730469 C 344.402344 283.257812 344.085938 285.808594 343.601562 286.382812 C 343.121094 286.953125 340.675781 287.707031 339.214844 288.160156 C 336.355469 289.042969 333.117188 290.046875 330.417969 292.316406 C 327.742188 294.566406 326.210938 297.566406 324.859375 300.214844 C 324.15625 301.589844 322.984375 303.894531 322.3125 304.28125 C 321.652344 304.636719 319.117188 304.511719 317.601562 304.4375 C 314.609375 304.289062 311.214844 304.117188 307.902344 305.320312 C 304.644531 306.503906 302.1875 308.785156 300.023438 310.796875 C 298.8125 311.929688 296.972656 313.636719 296.171875 313.777344 C 295.363281 313.917969 293.054688 312.941406 291.527344 312.296875 C 288.808594 311.144531 285.730469 309.84375 282.269531 309.84375 C 282.261719 309.84375 282.257812 309.84375 282.253906 309.84375 C 278.730469 309.847656 275.597656 311.167969 272.835938 312.335938 C 271.4375 312.921875 269.097656 313.902344 268.359375 313.800781 C 267.59375 313.664062 265.703125 311.902344 264.574219 310.851562 C 262.398438 308.824219 259.933594 306.527344 256.652344 305.328125 C 254.464844 304.527344 252.246094 304.332031 250.132812 304.332031 C 249.042969 304.332031 247.980469 304.382812 246.964844 304.433594 C 245.4375 304.507812 242.878906 304.636719 242.234375 304.265625 C 241.582031 303.886719 240.410156 301.597656 239.710938 300.230469 C 238.351562 297.570312 236.808594 294.554688 234.109375 292.296875 C 231.421875 290.039062 228.191406 289.046875 225.339844 288.175781 C 223.871094 287.722656 221.40625 286.96875 220.917969 286.382812 C 220.445312 285.816406 220.128906 283.289062 219.941406 281.78125 C 219.566406 278.808594 219.148438 275.4375 217.375 272.367188 C 215.632812 269.355469 212.957031 267.328125 210.59375 265.542969 C 209.355469 264.605469 207.285156 263.042969 207.019531 262.296875 C 206.785156 261.605469 207.34375 259.171875 207.679688 257.714844 C 208.355469 254.773438 209.121094 251.441406 208.496094 247.902344 C 207.875 244.363281 206.015625 241.492188 204.375 238.960938 C 203.472656 237.570312 202.351562 235.839844 202.195312 234.945312 C 202.070312 234.25 203.609375 231.875 204.4375 230.597656 C 206.046875 228.125 207.867188 225.316406 208.472656 221.871094 C 209.089844 218.378906 208.335938 215.070312 207.667969 212.148438 C 207.328125 210.664062 206.761719 208.183594 207.011719 207.488281 C 207.273438 206.769531 209.332031 205.21875 210.558594 204.289062 C 212.9375 202.492188 215.636719 200.457031 217.390625 197.417969 C 219.152344 194.371094 219.570312 191.011719 219.941406 188.046875 C 220.128906 186.519531 220.449219 183.96875 220.929688 183.390625 C 221.410156 182.820312 223.859375 182.066406 225.320312 181.613281 C 228.179688 180.730469 231.417969 179.726562 234.117188 177.457031 C 236.789062 175.207031 238.320312 172.207031 239.671875 169.558594 C 240.375 168.179688 241.550781 165.878906 242.21875 165.492188 C 242.878906 165.132812 245.414062 165.261719 246.929688 165.335938 C 249.921875 165.484375 253.316406 165.652344 256.628906 164.453125 C 259.890625 163.269531 262.34375 160.988281 264.507812 158.976562 C 265.722656 157.84375 267.558594 156.136719 268.363281 155.996094 C 269.171875 155.867188 271.476562 156.832031 273.003906 157.476562 C 275.722656 158.625 278.800781 159.929688 282.261719 159.929688 C 282.265625 159.929688 282.273438 159.929688 282.277344 159.929688 C 285.800781 159.925781 288.933594 158.605469 291.695312 157.441406 C 293.09375 156.851562 295.425781 155.867188 296.171875 155.972656 C 296.9375 156.109375 298.832031 157.871094 299.960938 158.925781 C 302.136719 160.953125 304.601562 163.246094 307.882812 164.445312 C 311.191406 165.65625 314.578125 165.488281 317.566406 165.339844 C 319.09375 165.265625 321.652344 165.136719 322.296875 165.507812 C 322.949219 165.886719 324.121094 168.175781 324.820312 169.542969 C 326.183594 172.203125 327.726562 175.21875 330.421875 177.480469 C 333.109375 179.734375 336.339844 180.726562 339.191406 181.601562 C 340.660156 182.050781 343.125 182.808594 343.613281 183.390625 C 344.089844 183.957031 344.40625 186.484375 344.59375 187.996094 C 344.964844 190.964844 345.386719 194.335938 347.15625 197.402344 C 348.898438 200.417969 351.574219 202.445312 353.9375 204.230469 C 355.253906 205.226562 357.246094 206.734375 357.515625 207.476562 C 357.75 208.167969 357.1875 210.601562 356.855469 212.058594 C 356.175781 215 355.410156 218.332031 356.035156 221.875 C 356.660156 225.414062 358.519531 228.28125 360.15625 230.8125 C 361.058594 232.203125 362.183594 233.933594 362.339844 234.828125 Z M 282.265625 170.117188 C 246.570312 170.117188 217.53125 199.171875 217.53125 234.886719 C 217.53125 270.597656 246.570312 299.652344 282.265625 299.652344 C 317.960938 299.652344 347.003906 270.597656 347.003906 234.886719 C 347.003906 199.171875 317.960938 170.117188 282.265625 170.117188 Z M 282.265625 287.558594 C 253.238281 287.558594 229.621094 263.929688 229.621094 234.886719 C 229.621094 205.84375 253.238281 182.214844 282.265625 182.214844 C 311.292969 182.214844 334.910156 205.84375 334.910156 234.886719 C 334.910156 263.929688 311.292969 287.558594 282.265625 287.558594 Z M 296.402344 214.597656 L 287.863281 193.691406 C 286.933594 191.417969 284.722656 189.933594 282.265625 189.933594 C 279.8125 189.933594 277.597656 191.417969 276.671875 193.691406 L 268.132812 214.597656 L 245.617188 216.265625 C 243.167969 216.445312 241.074219 218.089844 240.316406 220.425781 C 239.554688 222.761719 240.285156 225.328125 242.160156 226.914062 L 259.394531 241.5 L 254.019531 263.433594 C 253.4375 265.820312 254.351562 268.324219 256.339844 269.769531 C 258.324219 271.210938 260.988281 271.3125 263.074219 270.015625 L 282.265625 258.125 L 301.457031 270.015625 C 302.4375 270.621094 303.539062 270.921875 304.640625 270.921875 C 305.890625 270.921875 307.136719 270.535156 308.195312 269.769531 C 310.179688 268.324219 311.097656 265.820312 310.511719 263.433594 L 305.136719 241.5 L 322.375 226.914062 C 324.25 225.328125 324.976562 222.761719 324.21875 220.425781 C 323.460938 218.089844 321.363281 216.445312 318.914062 216.265625 Z M 294.46875 234.683594 C 292.71875 236.164062 291.957031 238.511719 292.503906 240.742188 L 295.246094 251.941406 L 285.449219 245.871094 C 283.5 244.660156 281.03125 244.660156 279.082031 245.871094 L 269.285156 251.941406 L 272.027344 240.742188 C 272.574219 238.511719 271.8125 236.164062 270.0625 234.683594 L 261.261719 227.238281 L 272.753906 226.386719 C 275.042969 226.21875 277.039062 224.765625 277.90625 222.644531 L 282.265625 211.96875 L 286.625 222.644531 C 287.492188 224.765625 289.488281 226.21875 291.773438 226.386719 L 303.265625 227.238281 Z M 294.46875 234.683594 " fill-opacity="1" fill-rule="nonzero"/></svg>