<svg xmlns="http://www.w3.org/2000/svg" xmlns:xlink="http://www.w3.org/1999/xlink" width="500" zoomAndPan="magnify" viewBox="0 0 375 374.999991" height="500" preserveAspectRatio="xMidYMid meet" version="1.0"><defs><clipPath id="cc51353980"><path d="M 181 42.242188 L 195 42.242188 L 195 117 L 181 117 Z M 181 42.242188 " clip-rule="nonzero"/></clipPath></defs><path fill="#ff3b77" d="M 144.964844 113.289062 C 145.167969 113.664062 145.402344 114.019531 145.675781 114.351562 C 145.945312 114.683594 146.246094 114.984375 146.578125 115.257812 C 146.910156 115.53125 147.261719 115.765625 147.640625 115.96875 C 148.019531 116.171875 148.414062 116.335938 148.824219 116.460938 C 149.234375 116.585938 149.652344 116.667969 150.078125 116.710938 C 150.503906 116.753906 150.929688 116.753906 151.355469 116.710938 C 151.785156 116.667969 152.203125 116.585938 152.613281 116.460938 C 153.023438 116.339844 153.414062 116.175781 153.792969 115.972656 C 154.171875 115.773438 154.527344 115.535156 154.859375 115.261719 C 155.1875 114.992188 155.492188 114.691406 155.761719 114.359375 C 156.035156 114.027344 156.269531 113.671875 156.472656 113.296875 C 156.675781 112.917969 156.839844 112.523438 156.960938 112.113281 C 157.085938 111.703125 157.167969 111.285156 157.210938 110.859375 C 157.253906 110.433594 157.253906 110.003906 157.210938 109.578125 C 157.167969 109.152344 157.085938 108.734375 156.960938 108.324219 C 156.835938 107.914062 156.671875 107.523438 156.46875 107.144531 L 137.867188 72.394531 C 137.664062 72.015625 137.429688 71.664062 137.15625 71.332031 C 136.886719 71 136.582031 70.699219 136.253906 70.425781 C 135.921875 70.15625 135.566406 69.917969 135.191406 69.71875 C 134.8125 69.515625 134.417969 69.351562 134.007812 69.226562 C 133.597656 69.105469 133.183594 69.019531 132.753906 68.976562 C 132.328125 68.9375 131.902344 68.9375 131.476562 68.976562 C 131.050781 69.019531 130.632812 69.101562 130.222656 69.226562 C 129.8125 69.351562 129.417969 69.515625 129.042969 69.714844 C 128.664062 69.917969 128.308594 70.15625 127.980469 70.425781 C 127.648438 70.699219 127.347656 71 127.074219 71.328125 C 126.804688 71.660156 126.566406 72.015625 126.363281 72.390625 C 126.164062 72.769531 126 73.164062 125.875 73.574219 C 125.75 73.980469 125.667969 74.398438 125.625 74.824219 C 125.582031 75.25 125.582031 75.675781 125.625 76.105469 C 125.667969 76.53125 125.75 76.949219 125.875 77.355469 C 126 77.765625 126.160156 78.160156 126.363281 78.539062 Z M 144.964844 113.289062 " fill-opacity="1" fill-rule="nonzero"/><path fill="#ff3b77" d="M 221.378906 115.964844 C 221.753906 116.167969 222.148438 116.332031 222.558594 116.457031 C 222.96875 116.582031 223.386719 116.667969 223.8125 116.710938 C 224.238281 116.75 224.664062 116.75 225.089844 116.710938 C 225.519531 116.667969 225.9375 116.585938 226.347656 116.460938 C 226.757812 116.335938 227.148438 116.171875 227.527344 115.96875 C 227.90625 115.769531 228.261719 115.53125 228.589844 115.257812 C 228.921875 114.988281 229.222656 114.683594 229.492188 114.351562 C 229.765625 114.019531 230 113.664062 230.203125 113.289062 L 248.804688 78.539062 C 249.023438 78.160156 249.199219 77.761719 249.339844 77.351562 C 249.476562 76.9375 249.574219 76.511719 249.625 76.078125 C 249.679688 75.644531 249.6875 75.210938 249.65625 74.777344 C 249.621094 74.339844 249.542969 73.914062 249.421875 73.492188 C 249.304688 73.074219 249.144531 72.671875 248.941406 72.28125 C 248.742188 71.894531 248.503906 71.53125 248.226562 71.191406 C 247.953125 70.851562 247.648438 70.542969 247.3125 70.265625 C 246.976562 69.988281 246.617188 69.746094 246.230469 69.539062 C 245.84375 69.332031 245.445312 69.167969 245.023438 69.042969 C 244.605469 68.917969 244.179688 68.835938 243.746094 68.796875 C 243.3125 68.757812 242.875 68.761719 242.441406 68.808594 C 242.007812 68.855469 241.582031 68.945312 241.167969 69.078125 C 240.75 69.210938 240.351562 69.386719 239.972656 69.597656 C 239.589844 69.8125 239.234375 70.0625 238.902344 70.347656 C 238.574219 70.628906 238.273438 70.945312 238.007812 71.289062 C 237.738281 71.636719 237.507812 72.003906 237.3125 72.394531 L 218.710938 107.144531 C 218.507812 107.519531 218.347656 107.914062 218.222656 108.324219 C 218.097656 108.734375 218.011719 109.152344 217.96875 109.578125 C 217.929688 110.003906 217.925781 110.429688 217.96875 110.855469 C 218.011719 111.28125 218.09375 111.695312 218.214844 112.105469 C 218.339844 112.515625 218.503906 112.910156 218.703125 113.289062 C 218.90625 113.664062 219.140625 114.019531 219.414062 114.351562 C 219.683594 114.683594 219.984375 114.984375 220.316406 115.253906 C 220.644531 115.527344 221 115.765625 221.378906 115.964844 Z M 221.378906 115.964844 " fill-opacity="1" fill-rule="nonzero"/><g clip-path="url(#cc51353980)"><path fill="#ff3b77" d="M 187.582031 116.726562 C 188.015625 116.730469 188.445312 116.691406 188.867188 116.609375 C 189.292969 116.527344 189.703125 116.40625 190.105469 116.242188 C 190.503906 116.078125 190.882812 115.875 191.246094 115.636719 C 191.605469 115.398438 191.9375 115.125 192.242188 114.820312 C 192.550781 114.515625 192.820312 114.183594 193.0625 113.824219 C 193.300781 113.464844 193.503906 113.085938 193.667969 112.6875 C 193.832031 112.289062 193.957031 111.875 194.039062 111.453125 C 194.121094 111.027344 194.160156 110.597656 194.15625 110.167969 L 194.15625 49.035156 C 194.15625 48.605469 194.117188 48.183594 194.03125 47.761719 C 193.949219 47.34375 193.824219 46.9375 193.660156 46.539062 C 193.496094 46.144531 193.296875 45.769531 193.058594 45.414062 C 192.820312 45.058594 192.550781 44.730469 192.246094 44.425781 C 191.945312 44.125 191.617188 43.855469 191.261719 43.617188 C 190.90625 43.378906 190.527344 43.179688 190.132812 43.015625 C 189.738281 42.851562 189.332031 42.726562 188.910156 42.644531 C 188.492188 42.558594 188.066406 42.519531 187.640625 42.519531 C 187.210938 42.519531 186.785156 42.558594 186.367188 42.644531 C 185.949219 42.726562 185.539062 42.851562 185.144531 43.015625 C 184.75 43.179688 184.375 43.378906 184.015625 43.617188 C 183.660156 43.855469 183.332031 44.125 183.03125 44.425781 C 182.726562 44.730469 182.457031 45.058594 182.21875 45.414062 C 181.980469 45.769531 181.78125 46.144531 181.617188 46.539062 C 181.453125 46.9375 181.328125 47.34375 181.246094 47.761719 C 181.160156 48.183594 181.121094 48.605469 181.121094 49.035156 L 181.121094 110.167969 C 181.117188 110.59375 181.15625 111.019531 181.238281 111.4375 C 181.316406 111.859375 181.4375 112.265625 181.597656 112.660156 C 181.761719 113.058594 181.957031 113.433594 182.191406 113.789062 C 182.429688 114.148438 182.695312 114.476562 182.996094 114.78125 C 183.296875 115.085938 183.621094 115.359375 183.976562 115.597656 C 184.328125 115.839844 184.703125 116.042969 185.097656 116.210938 C 185.488281 116.375 185.894531 116.503906 186.316406 116.589844 C 186.734375 116.675781 187.15625 116.722656 187.582031 116.726562 Z M 187.582031 116.726562 " fill-opacity="1" fill-rule="nonzero"/></g><path fill="#ff3b77" d="M 369.296875 143.371094 C 369.011719 142.46875 368.65625 141.589844 368.230469 140.746094 C 367.804688 139.898438 367.3125 139.089844 366.757812 138.320312 C 366.203125 137.550781 365.589844 136.832031 364.917969 136.160156 C 364.25 135.492188 363.53125 134.878906 362.761719 134.320312 C 361.992188 133.765625 361.183594 133.273438 360.335938 132.847656 C 359.492188 132.421875 358.617188 132.066406 357.710938 131.777344 C 356.808594 131.492188 355.886719 131.277344 354.949219 131.136719 C 354.011719 131 353.066406 130.933594 352.117188 130.945312 L 318.726562 130.945312 C 318.195312 130.949219 317.679688 130.867188 317.175781 130.707031 C 316.667969 130.542969 316.203125 130.308594 315.773438 130 C 315.34375 129.6875 314.972656 129.320312 314.660156 128.890625 C 314.347656 128.464844 314.109375 127.996094 313.945312 127.492188 L 303.628906 95.742188 C 303.335938 94.839844 302.976562 93.964844 302.546875 93.121094 C 302.117188 92.277344 301.621094 91.472656 301.066406 90.707031 C 300.507812 89.9375 299.894531 89.222656 299.222656 88.550781 C 298.554688 87.882812 297.835938 87.265625 297.070312 86.710938 C 296.300781 86.152344 295.496094 85.660156 294.652344 85.230469 C 293.808594 84.800781 292.933594 84.4375 292.03125 84.144531 C 291.132812 83.851562 290.210938 83.632812 289.277344 83.484375 C 288.339844 83.335938 287.398438 83.261719 286.449219 83.261719 C 285.503906 83.261719 284.5625 83.335938 283.625 83.484375 C 282.6875 83.632812 281.769531 83.851562 280.867188 84.144531 C 279.96875 84.4375 279.09375 84.800781 278.25 85.230469 C 277.40625 85.660156 276.601562 86.152344 275.832031 86.710938 C 275.066406 87.265625 274.347656 87.882812 273.675781 88.550781 C 273.007812 89.222656 272.394531 89.9375 271.835938 90.707031 C 271.28125 91.472656 270.785156 92.277344 270.355469 93.121094 C 269.925781 93.964844 269.5625 94.839844 269.269531 95.742188 L 258.953125 127.492188 C 258.785156 127.992188 258.542969 128.449219 258.226562 128.871094 C 257.914062 129.292969 257.542969 129.652344 257.113281 129.957031 C 256.683594 130.261719 256.21875 130.492188 255.71875 130.648438 C 255.214844 130.804688 254.703125 130.882812 254.175781 130.875 L 220.785156 130.875 C 219.835938 130.875 218.894531 130.949219 217.957031 131.097656 C 217.023438 131.246094 216.101562 131.46875 215.203125 131.761719 C 214.300781 132.054688 213.429688 132.414062 212.582031 132.84375 C 211.738281 133.273438 210.933594 133.769531 210.167969 134.324219 C 209.402344 134.882812 208.683594 135.496094 208.011719 136.164062 C 207.34375 136.835938 206.726562 137.554688 206.171875 138.320312 C 205.613281 139.085938 205.121094 139.890625 204.691406 140.734375 C 204.261719 141.578125 203.898438 142.453125 203.605469 143.351562 C 203.3125 144.253906 203.09375 145.171875 202.945312 146.109375 C 202.796875 147.042969 202.722656 147.984375 202.722656 148.933594 C 202.71875 149.878906 202.792969 150.820312 202.941406 151.757812 C 203.089844 152.691406 203.3125 153.609375 203.605469 154.511719 C 203.898438 155.414062 204.257812 156.285156 204.6875 157.128906 C 205.117188 157.972656 205.613281 158.78125 206.167969 159.546875 C 206.726562 160.3125 207.339844 161.03125 208.007812 161.699219 C 208.679688 162.371094 209.398438 162.984375 210.164062 163.542969 L 237.191406 183.171875 C 237.621094 183.484375 237.988281 183.851562 238.300781 184.28125 C 238.613281 184.710938 238.851562 185.175781 239.015625 185.679688 C 239.179688 186.183594 239.261719 186.699219 239.261719 187.230469 C 239.261719 187.757812 239.175781 188.273438 239.011719 188.777344 L 230.878906 209.847656 C 230.726562 210.246094 230.609375 210.65625 230.539062 211.078125 C 230.464844 211.496094 230.433594 211.921875 230.445312 212.351562 C 230.453125 212.777344 230.507812 213.199219 230.601562 213.617188 C 230.695312 214.035156 230.828125 214.4375 231 214.828125 C 231.171875 215.21875 231.382812 215.589844 231.628906 215.941406 C 231.875 216.289062 232.152344 216.613281 232.460938 216.90625 C 232.769531 217.203125 233.105469 217.464844 233.46875 217.691406 C 233.828125 217.921875 234.207031 218.113281 234.605469 218.269531 C 235.363281 218.566406 236.144531 218.710938 236.953125 218.710938 C 237.613281 218.710938 238.253906 218.617188 238.882812 218.421875 C 239.511719 218.230469 240.097656 217.949219 240.640625 217.578125 C 241.183594 217.210938 241.660156 216.769531 242.070312 216.253906 C 242.480469 215.742188 242.804688 215.179688 243.046875 214.566406 L 251.332031 193.167969 C 251.644531 192.261719 251.886719 191.332031 252.050781 190.386719 C 252.21875 189.4375 252.308594 188.484375 252.320312 187.523438 C 252.335938 186.5625 252.273438 185.605469 252.132812 184.65625 C 251.996094 183.703125 251.78125 182.769531 251.496094 181.851562 C 251.207031 180.933594 250.847656 180.046875 250.417969 179.183594 C 249.988281 178.324219 249.492188 177.503906 248.933594 176.722656 C 248.371094 175.941406 247.753906 175.210938 247.078125 174.527344 C 246.398438 173.84375 245.671875 173.21875 244.894531 172.652344 L 217.828125 152.964844 C 217.398438 152.65625 217.027344 152.285156 216.714844 151.855469 C 216.402344 151.429688 216.164062 150.960938 216 150.457031 C 215.835938 149.953125 215.753906 149.4375 215.753906 148.90625 C 215.753906 148.375 215.835938 147.859375 216 147.355469 C 216.164062 146.851562 216.402344 146.382812 216.714844 145.957031 C 217.027344 145.527344 217.398438 145.15625 217.828125 144.847656 C 218.257812 144.535156 218.726562 144.300781 219.230469 144.136719 C 219.734375 143.972656 220.253906 143.894531 220.785156 143.894531 L 254.175781 143.894531 C 255.125 143.902344 256.066406 143.832031 257 143.6875 C 257.9375 143.542969 258.855469 143.328125 259.757812 143.039062 C 260.660156 142.75 261.535156 142.390625 262.378906 141.960938 C 263.222656 141.535156 264.03125 141.042969 264.796875 140.488281 C 265.566406 139.933594 266.285156 139.324219 266.953125 138.652344 C 267.625 137.984375 268.238281 137.269531 268.796875 136.5 C 269.351562 135.734375 269.84375 134.929688 270.273438 134.085938 C 270.703125 133.242188 271.066406 132.371094 271.355469 131.46875 L 281.6875 99.714844 C 281.851562 99.214844 282.089844 98.75 282.398438 98.324219 C 282.710938 97.894531 283.082031 97.527344 283.507812 97.21875 C 283.9375 96.90625 284.402344 96.671875 284.902344 96.507812 C 285.40625 96.34375 285.921875 96.261719 286.449219 96.261719 C 286.980469 96.261719 287.496094 96.34375 287.996094 96.507812 C 288.5 96.671875 288.964844 96.90625 289.394531 97.21875 C 289.820312 97.527344 290.191406 97.894531 290.5 98.324219 C 290.8125 98.75 291.050781 99.214844 291.214844 99.714844 L 301.546875 131.46875 C 301.835938 132.371094 302.195312 133.242188 302.625 134.085938 C 303.054688 134.929688 303.550781 135.734375 304.105469 136.5 C 304.664062 137.269531 305.277344 137.984375 305.949219 138.652344 C 306.617188 139.324219 307.335938 139.933594 308.105469 140.488281 C 308.871094 141.042969 309.679688 141.535156 310.523438 141.960938 C 311.367188 142.390625 312.242188 142.75 313.144531 143.039062 C 314.046875 143.328125 314.964844 143.542969 315.902344 143.6875 C 316.835938 143.832031 317.777344 143.902344 318.726562 143.894531 L 352.117188 143.894531 C 352.648438 143.894531 353.167969 143.972656 353.671875 144.136719 C 354.175781 144.300781 354.644531 144.535156 355.074219 144.847656 C 355.503906 145.15625 355.871094 145.527344 356.183594 145.957031 C 356.496094 146.382812 356.734375 146.851562 356.898438 147.355469 C 357.0625 147.859375 357.144531 148.375 357.144531 148.90625 C 357.148438 149.4375 357.066406 149.953125 356.902344 150.457031 C 356.738281 150.960938 356.5 151.429688 356.1875 151.855469 C 355.875 152.285156 355.503906 152.65625 355.074219 152.964844 L 328.117188 172.640625 C 327.347656 173.195312 326.625 173.804688 325.953125 174.472656 C 325.28125 175.140625 324.664062 175.859375 324.105469 176.625 C 323.546875 177.390625 323.050781 178.195312 322.617188 179.039062 C 322.1875 179.882812 321.824219 180.757812 321.53125 181.660156 C 321.238281 182.558594 321.019531 183.480469 320.871094 184.417969 C 320.722656 185.351562 320.652344 186.296875 320.652344 187.242188 C 320.65625 188.191406 320.734375 189.132812 320.882812 190.070312 C 321.035156 191.003906 321.257812 191.921875 321.554688 192.824219 L 331.871094 224.578125 C 332.046875 225.078125 332.140625 225.597656 332.144531 226.128906 C 332.152344 226.664062 332.074219 227.179688 331.90625 227.6875 C 331.742188 228.195312 331.503906 228.660156 331.183594 229.089844 C 330.867188 229.515625 330.488281 229.878906 330.050781 230.183594 C 329.164062 230.839844 328.167969 231.179688 327.066406 231.203125 C 325.984375 231.191406 325.019531 230.851562 324.167969 230.183594 L 297.125 210.566406 C 296.359375 210.003906 295.558594 209.507812 294.714844 209.074219 C 293.871094 208.640625 292.996094 208.277344 292.097656 207.984375 C 291.195312 207.6875 290.277344 207.464844 289.339844 207.316406 C 288.402344 207.167969 287.460938 207.09375 286.511719 207.09375 C 285.566406 207.09375 284.621094 207.167969 283.6875 207.316406 C 282.75 207.464844 281.832031 207.6875 280.929688 207.984375 C 280.027344 208.277344 279.15625 208.640625 278.3125 209.074219 C 277.46875 209.507812 276.664062 210.003906 275.898438 210.566406 L 252.960938 225.75 L 222.121094 225.75 C 221.507812 225.75 220.910156 225.652344 220.328125 225.460938 C 219.742188 225.269531 219.203125 224.992188 218.707031 224.628906 C 218.210938 224.269531 217.78125 223.839844 217.421875 223.339844 C 217.0625 222.84375 216.789062 222.304688 216.597656 221.71875 L 205.550781 187.714844 C 205.246094 186.773438 204.871094 185.859375 204.421875 184.976562 C 203.972656 184.089844 203.457031 183.246094 202.875 182.445312 C 202.292969 181.640625 201.652344 180.890625 200.953125 180.1875 C 200.253906 179.488281 199.503906 178.84375 198.703125 178.261719 C 197.898438 177.675781 197.058594 177.160156 196.175781 176.710938 C 195.292969 176.257812 194.378906 175.878906 193.4375 175.574219 C 192.492188 175.265625 191.53125 175.035156 190.554688 174.878906 C 189.574219 174.726562 188.589844 174.648438 187.597656 174.648438 C 186.605469 174.648438 185.621094 174.726562 184.640625 174.878906 C 183.664062 175.035156 182.703125 175.265625 181.757812 175.574219 C 180.816406 175.878906 179.902344 176.257812 179.019531 176.710938 C 178.136719 177.160156 177.292969 177.675781 176.492188 178.261719 C 175.691406 178.84375 174.941406 179.488281 174.242188 180.1875 C 173.539062 180.890625 172.898438 181.640625 172.320312 182.445312 C 171.738281 183.246094 171.222656 184.089844 170.773438 184.976562 C 170.324219 185.859375 169.949219 186.773438 169.644531 187.714844 L 158.597656 221.71875 C 158.40625 222.304688 158.132812 222.84375 157.773438 223.34375 C 157.414062 223.839844 156.984375 224.269531 156.488281 224.632812 C 155.992188 224.996094 155.453125 225.273438 154.871094 225.464844 C 154.285156 225.652344 153.6875 225.75 153.070312 225.75 L 122.34375 225.75 L 99.117188 210.398438 C 97.613281 209.316406 95.984375 208.488281 94.21875 207.921875 C 92.457031 207.359375 90.652344 207.078125 88.800781 207.085938 C 86.886719 207.089844 85.019531 207.386719 83.199219 207.980469 C 81.378906 208.578125 79.699219 209.4375 78.152344 210.566406 L 51.082031 230.183594 C 50.230469 230.847656 49.265625 231.1875 48.183594 231.203125 C 47.074219 231.183594 46.078125 230.84375 45.1875 230.183594 C 44.75 229.878906 44.371094 229.515625 44.050781 229.089844 C 43.734375 228.660156 43.492188 228.195312 43.328125 227.6875 C 43.164062 227.179688 43.085938 226.664062 43.089844 226.128906 C 43.097656 225.597656 43.1875 225.078125 43.363281 224.578125 L 53.695312 192.824219 C 53.988281 191.921875 54.207031 191.003906 54.359375 190.066406 C 54.507812 189.132812 54.582031 188.191406 54.582031 187.242188 C 54.582031 186.292969 54.507812 185.351562 54.359375 184.417969 C 54.210938 183.480469 53.988281 182.5625 53.695312 181.660156 C 53.402344 180.761719 53.039062 179.886719 52.609375 179.042969 C 52.175781 178.199219 51.683594 177.394531 51.125 176.628906 C 50.566406 175.863281 49.953125 175.144531 49.28125 174.476562 C 48.609375 173.808594 47.886719 173.195312 47.121094 172.640625 L 20.148438 152.964844 C 19.71875 152.65625 19.347656 152.285156 19.039062 151.859375 C 18.726562 151.429688 18.488281 150.964844 18.324219 150.460938 C 18.160156 149.957031 18.078125 149.441406 18.074219 148.910156 C 18.074219 148.382812 18.15625 147.863281 18.320312 147.363281 C 18.484375 146.859375 18.722656 146.390625 19.03125 145.964844 C 19.34375 145.535156 19.714844 145.164062 20.140625 144.851562 C 20.570312 144.542969 21.035156 144.304688 21.539062 144.140625 C 22.042969 143.976562 22.558594 143.894531 23.089844 143.894531 L 56.457031 143.894531 C 57.402344 143.898438 58.34375 143.828125 59.277344 143.679688 C 60.214844 143.535156 61.132812 143.316406 62.03125 143.027344 C 62.933594 142.734375 63.804688 142.378906 64.648438 141.949219 C 65.496094 141.523438 66.300781 141.03125 67.066406 140.476562 C 67.832031 139.921875 68.550781 139.308594 69.222656 138.640625 C 69.894531 137.972656 70.507812 137.257812 71.066406 136.492188 C 71.621094 135.730469 72.117188 134.925781 72.546875 134.082031 C 72.980469 133.242188 73.339844 132.371094 73.636719 131.46875 L 83.953125 99.714844 C 84.113281 99.210938 84.351562 98.746094 84.664062 98.316406 C 84.972656 97.886719 85.34375 97.515625 85.773438 97.203125 C 86.199219 96.890625 86.667969 96.652344 87.171875 96.488281 C 87.675781 96.324219 88.191406 96.242188 88.722656 96.242188 C 89.253906 96.242188 89.769531 96.324219 90.273438 96.488281 C 90.78125 96.652344 91.246094 96.890625 91.675781 97.203125 C 92.101562 97.515625 92.472656 97.886719 92.785156 98.316406 C 93.09375 98.746094 93.332031 99.210938 93.496094 99.714844 L 103.824219 131.46875 C 104.117188 132.371094 104.476562 133.242188 104.90625 134.085938 C 105.335938 134.929688 105.828125 135.734375 106.382812 136.5 C 106.941406 137.265625 107.554688 137.980469 108.222656 138.648438 C 108.894531 139.320312 109.613281 139.929688 110.378906 140.484375 C 111.144531 141.039062 111.949219 141.53125 112.792969 141.957031 C 113.640625 142.386719 114.511719 142.746094 115.414062 143.035156 C 116.3125 143.324219 117.230469 143.542969 118.167969 143.6875 C 119.101562 143.828125 120.042969 143.898438 120.992188 143.894531 L 154.398438 143.894531 C 154.929688 143.894531 155.445312 143.972656 155.949219 144.136719 C 156.453125 144.300781 156.921875 144.535156 157.351562 144.847656 C 157.78125 145.15625 158.152344 145.527344 158.464844 145.957031 C 158.777344 146.382812 159.015625 146.851562 159.179688 147.355469 C 159.34375 147.859375 159.425781 148.375 159.425781 148.90625 C 159.425781 149.4375 159.34375 149.953125 159.179688 150.457031 C 159.015625 150.960938 158.777344 151.429688 158.464844 151.855469 C 158.152344 152.285156 157.78125 152.65625 157.351562 152.964844 L 130.328125 172.640625 C 129.554688 173.191406 128.832031 173.800781 128.15625 174.46875 C 127.484375 175.136719 126.863281 175.851562 126.304688 176.617188 C 125.742188 177.382812 125.246094 178.1875 124.8125 179.03125 C 124.378906 179.875 124.015625 180.75 123.71875 181.652344 C 123.425781 182.554688 123.203125 183.472656 123.054688 184.410156 C 122.902344 185.347656 122.828125 186.289062 122.832031 187.238281 C 122.832031 188.1875 122.90625 189.128906 123.054688 190.066406 C 123.207031 191.003906 123.429688 191.921875 123.726562 192.824219 L 132.09375 214.554688 C 132.332031 215.167969 132.660156 215.730469 133.066406 216.242188 C 133.476562 216.757812 133.953125 217.199219 134.496094 217.566406 C 135.042969 217.9375 135.628906 218.21875 136.253906 218.410156 C 136.882812 218.601562 137.527344 218.699219 138.183594 218.695312 C 138.992188 218.695312 139.769531 218.550781 140.519531 218.253906 C 140.917969 218.101562 141.300781 217.910156 141.660156 217.683594 C 142.023438 217.453125 142.359375 217.191406 142.671875 216.898438 C 142.980469 216.605469 143.261719 216.28125 143.507812 215.933594 C 143.753906 215.582031 143.964844 215.210938 144.140625 214.820312 C 144.3125 214.429688 144.449219 214.023438 144.542969 213.605469 C 144.636719 213.191406 144.6875 212.765625 144.699219 212.339844 C 144.707031 211.910156 144.675781 211.484375 144.601562 211.0625 C 144.53125 210.640625 144.414062 210.230469 144.261719 209.832031 L 135.976562 188.433594 C 135.851562 187.945312 135.800781 187.453125 135.824219 186.953125 C 135.851562 186.449219 135.953125 185.964844 136.125 185.492188 C 136.300781 185.023438 136.539062 184.585938 136.847656 184.1875 C 137.152344 183.792969 137.511719 183.449219 137.921875 183.160156 L 165.019531 163.554688 C 165.785156 163 166.503906 162.386719 167.175781 161.714844 C 167.847656 161.046875 168.460938 160.328125 169.019531 159.5625 C 169.578125 158.792969 170.074219 157.988281 170.503906 157.144531 C 170.9375 156.300781 171.296875 155.425781 171.59375 154.523438 C 171.886719 153.621094 172.105469 152.703125 172.253906 151.765625 C 172.40625 150.832031 172.480469 149.886719 172.480469 148.941406 C 172.480469 147.992188 172.40625 147.050781 172.257812 146.113281 C 172.109375 145.175781 171.886719 144.257812 171.59375 143.355469 C 171.300781 142.453125 170.941406 141.578125 170.507812 140.734375 C 170.078125 139.890625 169.585938 139.085938 169.027344 138.316406 C 168.46875 137.550781 167.855469 136.832031 167.183594 136.160156 C 166.511719 135.492188 165.792969 134.878906 165.027344 134.320312 C 164.257812 133.761719 163.453125 133.269531 162.605469 132.839844 C 161.761719 132.410156 160.886719 132.046875 159.984375 131.757812 C 159.082031 131.464844 158.164062 131.242188 157.226562 131.097656 C 156.289062 130.949219 155.347656 130.875 154.398438 130.875 L 120.964844 130.875 C 120.433594 130.878906 119.914062 130.800781 119.410156 130.636719 C 118.90625 130.472656 118.441406 130.238281 118.011719 129.925781 C 117.582031 129.613281 117.214844 129.242188 116.902344 128.8125 C 116.59375 128.382812 116.359375 127.917969 116.199219 127.410156 L 105.867188 95.65625 C 105.574219 94.757812 105.210938 93.886719 104.78125 93.042969 C 104.351562 92.199219 103.855469 91.394531 103.300781 90.628906 C 102.742188 89.867188 102.128906 89.148438 101.460938 88.480469 C 100.789062 87.8125 100.070312 87.199219 99.304688 86.640625 C 98.539062 86.085938 97.734375 85.59375 96.890625 85.164062 C 96.046875 84.734375 95.171875 84.375 94.273438 84.082031 C 93.371094 83.789062 92.453125 83.570312 91.519531 83.421875 C 90.582031 83.273438 89.640625 83.199219 88.695312 83.199219 C 87.75 83.199219 86.808594 83.273438 85.871094 83.421875 C 84.9375 83.570312 84.019531 83.789062 83.117188 84.082031 C 82.21875 84.375 81.347656 84.734375 80.503906 85.164062 C 79.65625 85.59375 78.851562 86.085938 78.085938 86.640625 C 77.320312 87.199219 76.601562 87.8125 75.933594 88.480469 C 75.261719 89.148438 74.648438 89.867188 74.089844 90.628906 C 73.535156 91.394531 73.039062 92.199219 72.609375 93.042969 C 72.179688 93.886719 71.816406 94.757812 71.523438 95.65625 L 61.207031 127.410156 C 61.042969 127.914062 60.808594 128.378906 60.5 128.808594 C 60.191406 129.234375 59.820312 129.605469 59.394531 129.914062 C 58.96875 130.226562 58.503906 130.464844 58 130.628906 C 57.5 130.792969 56.984375 130.875 56.457031 130.875 L 23.046875 130.875 C 22.101562 130.875 21.15625 130.949219 20.222656 131.097656 C 19.285156 131.246094 18.367188 131.46875 17.464844 131.761719 C 16.5625 132.054688 15.6875 132.414062 14.84375 132.84375 C 14 133.273438 13.191406 133.769531 12.425781 134.328125 C 11.660156 134.882812 10.941406 135.496094 10.269531 136.167969 C 9.597656 136.839844 8.984375 137.558594 8.429688 138.324219 C 7.871094 139.089844 7.378906 139.898438 6.945312 140.742188 C 6.515625 141.585938 6.15625 142.460938 5.863281 143.363281 C 5.570312 144.261719 5.351562 145.183594 5.203125 146.117188 C 5.054688 147.054688 4.980469 147.996094 4.980469 148.945312 C 4.980469 149.894531 5.054688 150.835938 5.207031 151.769531 C 5.355469 152.707031 5.574219 153.625 5.871094 154.527344 C 6.164062 155.429688 6.523438 156.300781 6.957031 157.144531 C 7.386719 157.992188 7.882812 158.796875 8.441406 159.5625 C 9 160.328125 9.613281 161.046875 10.285156 161.714844 C 10.957031 162.386719 11.675781 163 12.441406 163.554688 L 39.484375 183.1875 C 39.917969 183.503906 40.289062 183.875 40.605469 184.3125 C 40.917969 184.746094 41.15625 185.21875 41.320312 185.726562 C 41.480469 186.238281 41.5625 186.761719 41.554688 187.296875 C 41.550781 187.832031 41.464844 188.355469 41.292969 188.863281 L 30.960938 220.617188 C 30.652344 221.519531 30.414062 222.445312 30.25 223.386719 C 30.085938 224.328125 30 225.277344 29.988281 226.234375 C 29.976562 227.191406 30.039062 228.144531 30.179688 229.089844 C 30.320312 230.035156 30.535156 230.964844 30.824219 231.875 C 31.113281 232.789062 31.472656 233.671875 31.90625 234.523438 C 32.335938 235.378906 32.832031 236.195312 33.390625 236.96875 C 33.953125 237.746094 34.570312 238.46875 35.246094 239.148438 C 35.925781 239.824219 36.652344 240.441406 37.425781 241 C 38.203125 241.5625 39.015625 242.054688 39.871094 242.488281 C 40.726562 242.917969 41.609375 243.277344 42.523438 243.5625 C 43.433594 243.851562 44.363281 244.066406 45.3125 244.207031 C 46.257812 244.347656 47.210938 244.410156 48.167969 244.398438 C 49.125 244.386719 50.074219 244.296875 51.015625 244.132812 C 51.957031 243.972656 52.882812 243.734375 53.785156 243.421875 C 54.691406 243.109375 55.566406 242.726562 56.410156 242.277344 C 57.253906 241.824219 58.054688 241.308594 58.816406 240.730469 L 85.84375 221.113281 C 86.269531 220.796875 86.738281 220.558594 87.242188 220.394531 C 87.746094 220.230469 88.261719 220.148438 88.792969 220.148438 C 89.324219 220.148438 89.839844 220.230469 90.34375 220.394531 C 90.847656 220.558594 91.3125 220.796875 91.742188 221.113281 L 105.300781 230.113281 C 103.929688 231.257812 102.742188 232.574219 101.738281 234.054688 C 100.738281 235.535156 99.957031 237.125 99.40625 238.824219 C 99.089844 239.765625 98.851562 240.726562 98.691406 241.707031 C 98.53125 242.6875 98.449219 243.675781 98.445312 244.667969 C 98.445312 245.660156 98.519531 246.644531 98.675781 247.628906 C 98.832031 248.609375 99.0625 249.570312 99.371094 250.515625 C 99.679688 251.457031 100.0625 252.371094 100.515625 253.253906 C 100.972656 254.136719 101.492188 254.976562 102.082031 255.777344 C 102.671875 256.574219 103.320312 257.320312 104.03125 258.015625 C 104.738281 258.710938 105.5 259.347656 106.308594 259.921875 L 135.3125 280.917969 C 135.8125 281.28125 136.242188 281.710938 136.605469 282.207031 C 136.96875 282.707031 137.246094 283.246094 137.433594 283.832031 C 137.625 284.417969 137.722656 285.019531 137.722656 285.632812 C 137.722656 286.25 137.628906 286.851562 137.4375 287.4375 L 126.390625 321.441406 C 126.074219 322.382812 125.835938 323.34375 125.675781 324.324219 C 125.511719 325.300781 125.429688 326.289062 125.425781 327.28125 C 125.421875 328.273438 125.5 329.261719 125.652344 330.242188 C 125.808594 331.222656 126.039062 332.1875 126.347656 333.128906 C 126.660156 334.074219 127.039062 334.988281 127.496094 335.871094 C 127.953125 336.753906 128.472656 337.59375 129.0625 338.394531 C 129.652344 339.191406 130.304688 339.9375 131.015625 340.632812 C 131.722656 341.328125 132.484375 341.960938 133.296875 342.535156 C 134.089844 343.128906 134.929688 343.652344 135.808594 344.109375 C 136.691406 344.570312 137.601562 344.953125 138.542969 345.265625 C 139.484375 345.578125 140.445312 345.8125 141.425781 345.972656 C 142.40625 346.128906 143.394531 346.207031 144.386719 346.207031 C 145.378906 346.207031 146.363281 346.128906 147.34375 345.972656 C 148.324219 345.8125 149.285156 345.578125 150.226562 345.265625 C 151.167969 344.953125 152.078125 344.570312 152.960938 344.109375 C 153.839844 343.652344 154.679688 343.128906 155.476562 342.535156 L 184.40625 321.523438 C 184.90625 321.152344 185.453125 320.871094 186.042969 320.675781 C 186.632812 320.480469 187.238281 320.382812 187.859375 320.382812 C 188.480469 320.382812 189.085938 320.480469 189.675781 320.675781 C 190.269531 320.871094 190.8125 321.152344 191.3125 321.523438 L 220.246094 342.535156 C 221.042969 343.128906 221.878906 343.652344 222.761719 344.109375 C 223.640625 344.570312 224.554688 344.953125 225.496094 345.265625 C 226.441406 345.578125 227.402344 345.8125 228.382812 345.96875 C 229.363281 346.128906 230.347656 346.207031 231.339844 346.207031 C 232.335938 346.207031 233.320312 346.128906 234.300781 345.96875 C 235.28125 345.8125 236.242188 345.578125 237.183594 345.265625 C 238.128906 344.953125 239.039062 344.570312 239.921875 344.109375 C 240.800781 343.652344 241.640625 343.128906 242.4375 342.535156 C 243.25 341.960938 244.007812 341.328125 244.71875 340.632812 C 245.429688 339.9375 246.078125 339.191406 246.667969 338.394531 C 247.257812 337.59375 247.78125 336.753906 248.238281 335.871094 C 248.691406 334.988281 249.074219 334.074219 249.382812 333.128906 C 249.691406 332.1875 249.925781 331.222656 250.078125 330.242188 C 250.234375 329.261719 250.308594 328.273438 250.304688 327.28125 C 250.300781 326.289062 250.21875 325.300781 250.058594 324.324219 C 249.898438 323.34375 249.660156 322.382812 249.34375 321.441406 L 238.292969 287.4375 C 238.101562 286.851562 238.007812 286.25 238.003906 285.636719 C 238.003906 285.019531 238.097656 284.417969 238.289062 283.832031 C 238.480469 283.25 238.753906 282.707031 239.117188 282.207031 C 239.480469 281.710938 239.910156 281.28125 240.40625 280.917969 L 269.410156 259.921875 C 270.21875 259.347656 270.980469 258.714844 271.691406 258.019531 C 272.398438 257.324219 273.046875 256.574219 273.636719 255.777344 C 274.226562 254.976562 274.75 254.136719 275.207031 253.253906 C 275.660156 252.371094 276.042969 251.457031 276.351562 250.515625 C 276.660156 249.570312 276.894531 248.609375 277.046875 247.628906 C 277.203125 246.648438 277.277344 245.660156 277.273438 244.667969 C 277.273438 243.675781 277.191406 242.6875 277.027344 241.707031 C 276.867188 240.726562 276.628906 239.765625 276.3125 238.824219 C 275.761719 237.125 274.980469 235.53125 273.976562 234.050781 C 272.972656 232.570312 271.78125 231.257812 270.402344 230.113281 L 283.742188 221.265625 C 284.707031 220.542969 285.789062 220.175781 286.988281 220.160156 C 288.050781 220.160156 289.007812 220.472656 289.863281 221.097656 L 316.886719 240.730469 C 317.648438 241.296875 318.453125 241.800781 319.292969 242.238281 C 320.136719 242.679688 321.007812 243.046875 321.910156 243.347656 C 322.8125 243.644531 323.730469 243.871094 324.671875 244.023438 C 325.609375 244.171875 326.550781 244.25 327.5 244.25 C 328.453125 244.25 329.394531 244.171875 330.332031 244.023438 C 331.269531 243.871094 332.191406 243.644531 333.09375 243.347656 C 333.992188 243.046875 334.867188 242.679688 335.707031 242.238281 C 336.550781 241.800781 337.351562 241.296875 338.113281 240.730469 C 338.867188 240.167969 339.566406 239.546875 340.21875 238.871094 C 340.871094 238.195312 341.46875 237.472656 342.007812 236.707031 C 342.546875 235.9375 343.019531 235.128906 343.429688 234.285156 C 343.839844 233.441406 344.183594 232.570312 344.457031 231.671875 C 344.726562 230.773438 344.929688 229.855469 345.054688 228.925781 C 345.183594 227.996094 345.238281 227.0625 345.21875 226.125 C 345.199219 225.183594 345.105469 224.253906 344.9375 223.328125 C 344.769531 222.40625 344.53125 221.5 344.21875 220.617188 L 333.890625 188.863281 C 333.722656 188.359375 333.640625 187.839844 333.640625 187.3125 C 333.640625 186.78125 333.722656 186.265625 333.886719 185.761719 C 334.050781 185.257812 334.289062 184.792969 334.601562 184.363281 C 334.910156 183.9375 335.28125 183.566406 335.710938 183.257812 L 362.738281 163.625 C 363.515625 163.074219 364.246094 162.464844 364.925781 161.796875 C 365.605469 161.128906 366.226562 160.410156 366.792969 159.644531 C 367.359375 158.875 367.859375 158.066406 368.292969 157.21875 C 368.726562 156.371094 369.089844 155.492188 369.386719 154.585938 C 369.679688 153.679688 369.898438 152.757812 370.042969 151.8125 C 370.1875 150.871094 370.257812 149.925781 370.25 148.972656 C 370.242188 148.019531 370.160156 147.074219 370 146.132812 C 369.839844 145.195312 369.605469 144.273438 369.296875 143.371094 Z M 170.996094 225.792969 L 182.046875 191.789062 C 182.238281 191.210938 182.519531 190.675781 182.882812 190.183594 C 183.242188 189.695312 183.671875 189.269531 184.167969 188.914062 C 184.664062 188.558594 185.203125 188.285156 185.78125 188.097656 C 186.363281 187.914062 186.960938 187.820312 187.570312 187.820312 C 188.179688 187.820312 188.777344 187.914062 189.355469 188.097656 C 189.9375 188.285156 190.476562 188.558594 190.972656 188.914062 C 191.46875 189.269531 191.894531 189.695312 192.257812 190.183594 C 192.621094 190.675781 192.898438 191.210938 193.09375 191.789062 L 204.140625 225.792969 C 204.445312 226.734375 204.824219 227.648438 205.273438 228.53125 C 205.71875 229.414062 206.234375 230.257812 206.816406 231.058594 C 207.398438 231.859375 208.039062 232.609375 208.742188 233.3125 C 209.441406 234.011719 210.191406 234.652344 210.992188 235.234375 C 211.796875 235.816406 212.636719 236.332031 213.519531 236.78125 C 214.402344 237.230469 215.316406 237.605469 216.257812 237.910156 C 217.203125 238.214844 218.164062 238.445312 219.140625 238.597656 C 220.121094 238.753906 221.105469 238.828125 222.09375 238.824219 L 257.863281 238.824219 C 258.476562 238.828125 259.078125 238.925781 259.660156 239.117188 C 260.242188 239.3125 260.785156 239.589844 261.277344 239.949219 C 261.773438 240.3125 262.203125 240.742188 262.5625 241.238281 C 262.921875 241.738281 263.199219 242.277344 263.386719 242.863281 C 263.578125 243.445312 263.671875 244.046875 263.671875 244.660156 C 263.675781 245.273438 263.582031 245.871094 263.390625 246.457031 C 263.203125 247.042969 262.929688 247.582031 262.570312 248.082031 C 262.210938 248.578125 261.785156 249.011719 261.289062 249.375 L 232.355469 270.386719 C 231.550781 270.964844 230.796875 271.601562 230.09375 272.300781 C 229.390625 272.996094 228.742188 273.746094 228.160156 274.542969 C 227.574219 275.34375 227.054688 276.183594 226.601562 277.066406 C 226.148438 277.945312 225.769531 278.859375 225.460938 279.800781 C 225.152344 280.742188 224.917969 281.699219 224.761719 282.679688 C 224.605469 283.65625 224.527344 284.640625 224.527344 285.632812 C 224.527344 286.625 224.601562 287.609375 224.757812 288.585938 C 224.914062 289.566406 225.144531 290.527344 225.449219 291.46875 L 236.5 325.472656 C 236.703125 326.054688 236.8125 326.65625 236.820312 327.277344 C 236.828125 327.894531 236.734375 328.5 236.542969 329.085938 C 236.351562 329.675781 236.074219 330.21875 235.703125 330.714844 C 235.335938 331.210938 234.894531 331.636719 234.386719 331.988281 C 233.347656 332.734375 232.1875 333.121094 230.90625 333.148438 C 229.648438 333.136719 228.523438 332.75 227.523438 331.988281 L 198.605469 310.976562 C 197.804688 310.390625 196.960938 309.875 196.078125 309.421875 C 195.199219 308.972656 194.285156 308.59375 193.34375 308.285156 C 192.402344 307.976562 191.441406 307.746094 190.460938 307.589844 C 189.484375 307.4375 188.5 307.359375 187.507812 307.359375 C 186.515625 307.359375 185.53125 307.4375 184.554688 307.589844 C 183.574219 307.746094 182.613281 307.976562 181.671875 308.285156 C 180.730469 308.59375 179.816406 308.972656 178.933594 309.421875 C 178.054688 309.875 177.210938 310.390625 176.410156 310.976562 L 147.480469 331.988281 C 146.484375 332.746094 145.359375 333.132812 144.109375 333.148438 C 142.828125 333.125 141.667969 332.738281 140.628906 331.988281 C 140.132812 331.632812 139.707031 331.207031 139.351562 330.714844 C 138.996094 330.21875 138.726562 329.683594 138.542969 329.101562 C 138.359375 328.519531 138.273438 327.925781 138.28125 327.316406 C 138.292969 326.707031 138.398438 326.117188 138.597656 325.539062 L 149.648438 291.535156 C 149.953125 290.59375 150.183594 289.632812 150.339844 288.65625 C 150.492188 287.675781 150.570312 286.691406 150.570312 285.703125 C 150.566406 284.710938 150.488281 283.726562 150.332031 282.75 C 150.175781 281.769531 149.945312 280.8125 149.636719 279.871094 C 149.328125 278.929688 148.945312 278.015625 148.492188 277.136719 C 148.042969 276.253906 147.523438 275.414062 146.9375 274.613281 C 146.351562 273.816406 145.707031 273.066406 145.003906 272.367188 C 144.300781 271.671875 143.546875 271.03125 142.742188 270.453125 L 113.863281 249.375 C 113.363281 249.011719 112.933594 248.582031 112.570312 248.085938 C 112.207031 247.585938 111.929688 247.046875 111.738281 246.460938 C 111.546875 245.875 111.453125 245.273438 111.449219 244.65625 C 111.449219 244.039062 111.546875 243.4375 111.734375 242.851562 C 111.925781 242.265625 112.203125 241.722656 112.566406 241.226562 C 112.925781 240.726562 113.359375 240.296875 113.855469 239.933594 C 114.355469 239.574219 114.898438 239.296875 115.484375 239.109375 C 116.070312 238.917969 116.671875 238.824219 117.289062 238.824219 L 153.042969 238.824219 C 154.035156 238.828125 155.019531 238.75 155.996094 238.597656 C 156.976562 238.441406 157.9375 238.210938 158.878906 237.90625 C 159.820312 237.601562 160.734375 237.222656 161.617188 236.777344 C 162.5 236.328125 163.339844 235.8125 164.140625 235.230469 C 164.945312 234.648438 165.695312 234.007812 166.394531 233.304688 C 167.09375 232.605469 167.734375 231.855469 168.316406 231.054688 C 168.898438 230.253906 169.417969 229.410156 169.867188 228.527344 C 170.316406 227.648438 170.691406 226.734375 170.996094 225.792969 Z M 170.996094 225.792969 " fill-opacity="1" fill-rule="nonzero"/></svg>