<svg xmlns="http://www.w3.org/2000/svg" xmlns:xlink="http://www.w3.org/1999/xlink" width="500" zoomAndPan="magnify" viewBox="0 0 375 374.999991" height="500" preserveAspectRatio="xMidYMid meet" version="1.0"><path fill="#ff3b77" d="M 187.40625 0 C 83.8125 0 0 83.90625 0 187.5 C 0 291.09375 83.8125 375 187.40625 375 C 291 375 375 291.09375 375 187.5 C 375 83.90625 291 0 187.40625 0 Z M 187.5 337.5 C 104.625 337.5 37.5 270.375 37.5 187.5 C 37.5 104.625 104.625 37.5 187.5 37.5 C 270.375 37.5 337.5 104.625 337.5 187.5 C 337.5 270.375 270.375 337.5 187.5 337.5 Z M 187.5 337.5 " fill-opacity="1" fill-rule="nonzero"/><path fill="#ff3b77" d="M 196.875 93.75 L 168.75 93.75 L 168.75 206.25 L 267.09375 265.3125 L 281.25 242.25 L 196.875 192.1875 Z M 196.875 93.75 " fill-opacity="1" fill-rule="nonzero"/></svg>